<svg xmlns="http://www.w3.org/2000/svg" viewBox="0 0 209.04 71.78"><defs><style>.cls-1{font-size:41.92px;font-family:Effra-Bold, Effra Bold;letter-spacing:0.02em;}.cls-1,.cls-6{fill:#2f7791;}.cls-2{font-weight:700;}.cls-3,.cls-4,.cls-5{font-family:EffraLight-Regular, Effra Light;}.cls-3{letter-spacing:0.02em;}.cls-4{letter-spacing:-0.01em;}.cls-5{letter-spacing:0.02em;}.cls-6{fill-rule:evenodd;}</style></defs><title>Asset 1</title><g id="Layer_2"><g id="Layer_1-2"><text class="cls-1" transform="translate(30.03 62.31)"><tspan class="cls-2">UICE</tspan><tspan class="cls-3" x="96.5" y="0">B</tspan><tspan class="cls-4" x="121.7" y="0">O</tspan><tspan class="cls-5" x="153.52" y="0">X</tspan></text><path class="cls-6" d="M29.33,8.57,24,53c-.26,2.15-.24,4.56-.9,6.12C20.54,65,8.41,64.86,3,60.75,1.33,59.46-.43,57.15.1,54.34c.46-2.46,2.92-4.19,5-5,4.34-1.61,11-.74,14.74,1.94L24.54,12C25,8.07,25,1,27,.21c2.51-1,3.12,1.83,4.28,3.54C37.13,12.37,47,16.06,46.43,30c-.1,2.53-.31,4.67-2.55,4.4-1.38-.17-1.76-1.33-1.82-2.81-.06-1.64.27-3.66.09-5.14a16.4,16.4,0,0,0-2.85-7.07C36.21,15.12,32.51,12.34,29.33,8.57Z"/></g></g></svg>
