<svg id="Layer_1" xmlns="http://www.w3.org/2000/svg" viewBox="0 0 207.4886 63.7052"><defs><style>.logo1,.logo2{fill:#2f7791;}.logo2{fill-rule:evenodd;}</style></defs><title>Logo</title><path class="logo1" d="M2759.5474,106.8511h6.3726v16.56a10.4618,10.4618,0,0,0,.2725,2.4941,4.9124,4.9124,0,0,0,.9014,1.9077,4.1336,4.1336,0,0,0,1.6558,1.2368,6.4457,6.4457,0,0,0,2.5361.44,6.3264,6.3264,0,0,0,2.4946-.44,4.1369,4.1369,0,0,0,1.6558-1.2368,4.9263,4.9263,0,0,0,.9014-1.9077,10.4869,10.4869,0,0,0,.2725-2.4941v-16.56h6.4146v17.356a12.5884,12.5884,0,0,1-.8179,4.6113,9.9849,9.9849,0,0,1-2.3477,3.5845,10.8078,10.8078,0,0,1-3.71,2.3267,13.4525,13.4525,0,0,1-4.8633.8384,13.7612,13.7612,0,0,1-4.8628-.8174,10.3968,10.3968,0,0,1-3.71-2.3267,10.1875,10.1875,0,0,1-2.3477-3.6055,12.5884,12.5884,0,0,1-.8179-4.6113v-17.356Z" transform="translate(-2727.0002 -72.5074)"/><path class="logo1" d="M2789.1025,106.8511h6.33v27.9624h-6.33V106.8511Z" transform="translate(-2727.0002 -72.5074)"/><path class="logo1" d="M2826.9585,129.6572a13.0776,13.0776,0,0,1-2.1382,2.2847,14.92,14.92,0,0,1-2.7876,1.8652,15.6107,15.6107,0,0,1-3.312,1.2578,14.7686,14.7686,0,0,1-3.71.4614,15.1348,15.1348,0,0,1-5.8271-1.09,13.4652,13.4652,0,0,1-4.5483-3.0391,13.6583,13.6583,0,0,1-2.9556-4.6118,16.7189,16.7189,0,0,1,0-11.6543,13.7472,13.7472,0,0,1,7.5249-7.8394,14.6663,14.6663,0,0,1,5.89-1.1528,15.3414,15.3414,0,0,1,6.8125,1.4253,12.8346,12.8346,0,0,1,4.8423,4.1084l-4.3184,4.15a10.3978,10.3978,0,0,0-2.9766-2.83,7.6255,7.6255,0,0,0-4.1084-1.0688,8.0536,8.0536,0,0,0-3.3955.6919,7.3962,7.3962,0,0,0-2.5571,1.9072,8.6945,8.6945,0,0,0-1.6143,2.83,10.6607,10.6607,0,0,0,0,6.8545,8.2369,8.2369,0,0,0,1.6143,2.7671,7.5072,7.5072,0,0,0,2.5151,1.8442,7.8672,7.8672,0,0,0,3.312.6709,9.69,9.69,0,0,0,2.62-.3145,7.891,7.891,0,0,0,1.97-.8384,7.7011,7.7011,0,0,0,1.53-1.2158q0.67-.6914,1.3-1.4043Z" transform="translate(-2727.0002 -72.5074)"/><path class="logo1" d="M2831.1079,106.8511h19.1172v5.5337H2837.44v5.45h9.9355v5.3662H2837.44v6.0366h13.707v5.5757h-20.0391V106.8511Z" transform="translate(-2727.0002 -72.5074)"/><path class="logo1" d="M2857.1421,106.8511h9.2646a9.8032,9.8032,0,0,1,3.5215.5659,6.6116,6.6116,0,0,1,2.39,1.5093,5.72,5.72,0,0,1,1.3418,2.18,8.1117,8.1117,0,0,1,.4189,2.62,6.5189,6.5189,0,0,1-.377,2.2217,7.1854,7.1854,0,0,1-1.0273,1.9077,5.9822,5.9822,0,0,1-1.5723,1.4463,5.7264,5.7264,0,0,1-2.0537.7964,12.4,12.4,0,0,1,2.2637.5869,6.8572,6.8572,0,0,1,2.1377,1.2368,6.3545,6.3545,0,0,1,1.5928,2.1172,8.6168,8.6168,0,0,1-.209,6.938,6.3354,6.3354,0,0,1-2.2852,2.3057,9.8243,9.8243,0,0,1-3.3535,1.1948,23.3071,23.3071,0,0,1-4.0459.3354h-8.0068V106.8511Zm8.1328,12.4512a9.7339,9.7339,0,0,0,2.3271-.2935,6.42,6.42,0,0,0,2.1582-.9644,5.615,5.615,0,0,0,1.5938-1.6978,4.6905,4.6905,0,0,0,.6289-2.4946,5.157,5.157,0,0,0-.6084-2.6831,4.29,4.29,0,0,0-1.5723-1.5508,6.0717,6.0717,0,0,0-2.1592-.7129,17.086,17.086,0,0,0-2.3682-.1675h-6.1211v10.5645h6.1211Zm-0.6289,13.6245q1.5923,0,3.1865-.1465a9.112,9.112,0,0,0,2.8711-.7129,4.9246,4.9246,0,0,0,2.0752-1.6978,5.3067,5.3067,0,0,0,.7969-3.1021,5.57,5.57,0,0,0-.7754-3.0815,5.4185,5.4185,0,0,0-1.9707-1.8447,8.5637,8.5637,0,0,0-2.6621-.9009,16.8408,16.8408,0,0,0-2.8506-.252h-6.1631v11.7383h5.4922Z" transform="translate(-2727.0002 -72.5074)"/><path class="logo1" d="M2894.9556,135.4844a13.3874,13.3874,0,0,1-9.9355-4.2344,14.4317,14.4317,0,0,1-2.8926-4.6323,16.3217,16.3217,0,0,1,0-11.5078,14.639,14.639,0,0,1,2.8926-4.6743,13.2731,13.2731,0,0,1,4.3809-3.123,14.1906,14.1906,0,0,1,11.1094,0,13.2731,13.2731,0,0,1,4.3809,3.123,14.6413,14.6413,0,0,1,2.8936,4.6743,16.3216,16.3216,0,0,1,0,11.5078,14.4341,14.4341,0,0,1-2.8936,4.6323A13.3874,13.3874,0,0,1,2894.9556,135.4844Zm0-1.8867a11.566,11.566,0,0,0,4.8213-.9854,10.7882,10.7882,0,0,0,3.71-2.7246,12.5129,12.5129,0,0,0,2.3691-4.0664,14.5516,14.5516,0,0,0,.8379-4.9678,14.7365,14.7365,0,0,0-.8379-4.9893,12.2383,12.2383,0,0,0-2.3691-4.0664,11.1708,11.1708,0,0,0-3.71-2.7246,12.05,12.05,0,0,0-9.6416,0,11.1648,11.1648,0,0,0-3.7109,2.7246,12.22,12.22,0,0,0-2.3682,4.0664,14.713,14.713,0,0,0-.8389,4.9893,14.5285,14.5285,0,0,0,.8389,4.9678,12.4933,12.4933,0,0,0,2.3682,4.0664,10.7828,10.7828,0,0,0,3.7109,2.7246A11.5582,11.5582,0,0,0,2894.9556,133.5977Z" transform="translate(-2727.0002 -72.5074)"/><path class="logo1" d="M2921.7026,120.2666l-9.6006-13.4155h2.4316l8.3008,11.7383,8.3848-11.7383h2.3477l-9.5586,13.29,10.48,14.6729h-2.4316l-9.1807-12.9961-9.2646,12.9961h-2.3477Z" transform="translate(-2727.0002 -72.5074)"/><path class="logo2" d="M2756.3315,81.0781q-2.6271,21.8005-5.3549,44.4409c-0.2593,2.1514-.2369,4.564-0.9048,6.1153-2.5352,5.8823-14.6592,5.7314-20.0479,1.622-1.69-1.289-3.4565-3.5957-2.9287-6.4091,0.4629-2.459,2.9224-4.1929,4.9717-4.9522,4.3433-1.6113,11.0146-.7383,14.7383,1.9439,1.5591-12.9439,3.1064-25.7793,4.7358-39.3,0.4761-3.96.5059-11.0445,2.4331-11.82,2.5122-1.0107,3.1153,1.8321,4.2832,3.545,5.8755,8.6113,15.7119,12.3066,15.1778,26.2216-0.0972,2.5284-.3067,4.6739-2.55,4.4034-1.3828-.1665-1.7647-1.3321-1.8208-2.8111-0.063-1.6382.2734-3.6621,0.0874-5.1367a16.3972,16.3972,0,0,0-2.8487-7.0723C2763.2056,87.6284,2759.51,84.8486,2756.3315,81.0781Z" transform="translate(-2727.0002 -72.5074)"/></svg>
