<svg id="Layer_1" data-name="Layer 1" xmlns="http://www.w3.org/2000/svg" viewBox="0 0 45.3566 45.0157"><defs><style>.search-1{opacity:0.9;}.search-2{fill:#d4145a;fill-rule:evenodd;}</style></defs><title>Search</title><g class="search-1"><path class="search-2" d="M4469.32,73.3447h1.1143a18.386,18.386,0,0,1,9.375,2.8921,18.7138,18.7138,0,0,1,6.0459,6.2163,18.2529,18.2529,0,0,1,2.59,9.6753,17.9672,17.9672,0,0,1-2.74,9.5078,18.91,18.91,0,0,0,1.3613,1.3985q4.437,4.4333,8.94,8.938a1.4052,1.4052,0,0,1,.66,1.1157,3.26,3.26,0,0,1-.7939,1.8149,13.76,13.76,0,0,1-1.2686,1.3408,5.9323,5.9323,0,0,1-3.0967,2.1163h-0.3037a2.0391,2.0391,0,0,1-1.0185-.754c-3.3711-3.374-6.7686-6.8115-10.1485-10.1328a18.4848,18.4848,0,0,1-19.39.5694,18.8015,18.8015,0,0,1-6.3887-6.0484,18.6108,18.6108,0,0,1-2.9482-9.4663V91.3159a19.6828,19.6828,0,0,1,.5693-3.9687,18.1318,18.1318,0,0,1,4.8955-8.5786A18.3547,18.3547,0,0,1,4469.32,73.3447Zm-1.5088,6.3491a12.0507,12.0507,0,0,0-3.5195,1.1343,12.1734,12.1734,0,0,0-5.9346,6.4644,12.3913,12.3913,0,0,0-.8662,5.289,12.0889,12.0889,0,0,0,3.9483,8.4478,12.3976,12.3976,0,0,0,20.8242-9.7134A12.4608,12.4608,0,0,0,4467.8115,79.6938Z" transform="translate(-4451.3096 -73.3447)"/></g></svg>
