<svg id="Layer_1" data-name="Layer 1" xmlns="http://www.w3.org/2000/svg" viewBox="0 0 423.52 543.19"><title>Camera_</title><rect x="41.35" y="333.16" width="351.11" height="53.94" fill="#fff"/><rect x="59.37" y="405.66" width="317.08" height="53.94" fill="#fff"/><g style="isolation:isolate"><g style="isolation:isolate"><path d="M81.47,364.87l6.24-20.12H92l6.24,20.12,7-20.12h5.08l-9.76,28H95.87L90,353.55H89.67l-5.88,19.16H79.11l-9.76-28h5.08Z" transform="translate(0 0.03)" fill="#2f7791"/><path d="M114.67,372.71v-28h4.72v12.12h13.88V344.75H138v28h-4.72V361.27H119.39v11.44h-4.72Z" transform="translate(0 0.03)" fill="#2f7791"/></g><g style="isolation:isolate"><path d="M149.71,366.35l-2.8,6.36h-5l12.32-28h5l12.32,28h-5l-2.8-6.36h-14ZM161.79,362l-5.08-11.52L151.63,362h10.16Z" transform="translate(0 0.03)" fill="#2f7791"/></g><g style="isolation:isolate"><path d="M183.79,349.07v23.64h-4.72V349.07h-8.48v-4.32h21.68v4.32h-8.48Z" transform="translate(0 0.03)" fill="#2f7791"/><path d="M196.43,349.27a2.07,2.07,0,0,1-1.08-1.9,2.61,2.61,0,0,1,.72-2,2.48,2.48,0,0,1,1.8-.7,2.59,2.59,0,0,1,1.82.68,2.31,2.31,0,0,1,.74,1.78,3.71,3.71,0,0,1-.72,2.14l-2.36,3.4h-2.44Z" transform="translate(0 0.03)" fill="#2f7791"/><path d="M214.53,348.43a6.2,6.2,0,0,0-3.38.84,2.81,2.81,0,0,0-1.32,2.54,3,3,0,0,0,1.32,2.6,19.92,19.92,0,0,0,5.62,1.94,15.47,15.47,0,0,1,6.48,2.92,6.92,6.92,0,0,1,2.18,5.54,7.34,7.34,0,0,1-2.76,5.94,11,11,0,0,1-7.24,2.28,17,17,0,0,1-11.64-4.52l3-3.56a13.33,13.33,0,0,0,8.8,3.68,6,6,0,0,0,3.62-1,3.07,3.07,0,0,0,1.34-2.6,2.92,2.92,0,0,0-1.26-2.52,13.26,13.26,0,0,0-4.34-1.64,39,39,0,0,1-4.68-1.36,10.55,10.55,0,0,1-2.84-1.62,6.76,6.76,0,0,1-2.48-5.76,7,7,0,0,1,2.82-6,11.35,11.35,0,0,1,7-2.1A16.72,16.72,0,0,1,220,345a13.91,13.91,0,0,1,4.56,2.48L222.07,351a9.54,9.54,0,0,0-3.36-1.84A12.93,12.93,0,0,0,214.53,348.43Z" transform="translate(0 0.03)" fill="#2f7791"/></g><g style="isolation:isolate"><path d="M253.23,372.71h-4.8v-11L238,344.75h5.16l7.64,12.72,7.64-12.72h5.16l-10.4,16.92v11Z" transform="translate(0 0.03)" fill="#2f7791"/></g><g style="isolation:isolate"><path d="M289.67,368.85a15.33,15.33,0,0,1-21,0,14.68,14.68,0,0,1,0-20.64,15.34,15.34,0,0,1,21,0A14.68,14.68,0,0,1,289.67,368.85Zm-3.46-17.5a9.8,9.8,0,0,0-14,0,10.44,10.44,0,0,0,0,14.36,9.8,9.8,0,0,0,14,0A10.44,10.44,0,0,0,286.21,351.35Z" transform="translate(0 0.03)" fill="#2f7791"/><path d="M306.15,366.31a7.16,7.16,0,0,0,10.4,0,9,9,0,0,0,1.92-6.08V344.75h4.72v15.68q0,6-3.32,9.3a12.76,12.76,0,0,1-17,0q-3.32-3.26-3.32-9.3V344.75h4.72v15.48A9,9,0,0,0,306.15,366.31Z" transform="translate(0 0.03)" fill="#2f7791"/><path d="M352.91,353.83q0,6.92-6,8.72l7.32,10.16h-6l-6.68-9.4h-6.2v9.4h-4.72v-28H341q6.4,0,9.16,2.16T352.91,353.83Zm-6.28,4a5,5,0,0,0,1.44-4q0-2.74-1.48-3.76t-5.28-1h-6v10h5.88Q345.19,359,346.63,357.79Z" transform="translate(0 0.03)" fill="#2f7791"/></g><g style="isolation:isolate"><path d="M113.87,425.83q0,6.92-6,8.72l7.32,10.16h-6l-6.68-9.4h-6.2v9.4H91.55v-28h10.4q6.4,0,9.16,2.16T113.87,425.83Zm-6.28,4a5,5,0,0,0,1.44-4q0-2.74-1.48-3.76t-5.28-1h-6v10h5.88Q106.15,431,107.59,429.79Z" transform="translate(0 0.03)" fill="#2f7791"/><path d="M140.31,416.75v4.44H125.39v7.4h13.4v4.2h-13.4v7.48h15.4v4.44H120.67v-28h19.64Z" transform="translate(0 0.03)" fill="#2f7791"/><path d="M150.79,438.35l-2.8,6.36h-5l12.32-28h5l12.32,28h-5l-2.8-6.36h-14ZM162.87,434l-5.08-11.52L152.71,434h10.16Z" transform="translate(0 0.03)" fill="#2f7791"/><path d="M189.27,440.43a9.87,9.87,0,0,0,4.2-.82,14.46,14.46,0,0,0,3.68-2.62l3,3.12A14,14,0,0,1,189.41,445,14.45,14.45,0,0,1,178.89,441a14.83,14.83,0,0,1,.08-20.72,14.77,14.77,0,0,1,10.76-4.16,14.07,14.07,0,0,1,10.86,4.8l-3,3.28a13.11,13.11,0,0,0-3.78-2.68,10.6,10.6,0,0,0-4.18-.76,9.94,9.94,0,0,0-7.12,2.74,9.24,9.24,0,0,0-2.88,7,9.66,9.66,0,0,0,2.86,7.12A9.27,9.27,0,0,0,189.27,440.43Z" transform="translate(0 0.03)" fill="#2f7791"/><path d="M216.51,421.07v23.64h-4.72V421.07h-8.48v-4.32H225v4.32h-8.48Z" transform="translate(0 0.03)" fill="#2f7791"/><path d="M230.11,416.75h4.72v28h-4.72v-28Z" transform="translate(0 0.03)" fill="#2f7791"/><path d="M266,440.85a15.33,15.33,0,0,1-21,0,14.68,14.68,0,0,1,0-20.64,15.34,15.34,0,0,1,21,0A14.68,14.68,0,0,1,266,440.85Zm-3.46-17.5a9.8,9.8,0,0,0-14,0,10.44,10.44,0,0,0,0,14.36,9.8,9.8,0,0,0,14,0A10.44,10.44,0,0,0,262.53,423.35Z" transform="translate(0 0.03)" fill="#2f7791"/><path d="M297.15,416.75h4.72v28h-5.12l-15.84-20.4v20.4h-4.72v-28h4.72l16.24,20.88V416.75Z" transform="translate(0 0.03)" fill="#2f7791"/><path d="M317.83,436h-4.52v-2.44a5.67,5.67,0,0,1,.38-2.38,8.77,8.77,0,0,1,1.66-2.06l2.92-2.92a3.52,3.52,0,0,0,.92-2.48,3.37,3.37,0,0,0-1-2.46,3.32,3.32,0,0,0-2.48-1,3.61,3.61,0,0,0-2.54.94,3.79,3.79,0,0,0-1.18,2.5h-4.84a8.19,8.19,0,0,1,2.78-5.58,8.86,8.86,0,0,1,5.94-2,8.54,8.54,0,0,1,5.8,1.94,6.79,6.79,0,0,1,2.24,5.42,6.08,6.08,0,0,1-1.32,4,17.44,17.44,0,0,1-1.16,1.36q-0.4.4-1.06,1L319.29,431q-0.46.46-.74,0.78a3.82,3.82,0,0,0-.72,2.48V436Zm-2.18,8.88a3.08,3.08,0,0,1-2.18-.86,2.74,2.74,0,0,1-.92-2.08,2.84,2.84,0,0,1,.9-2.1,3,3,0,0,1,2.16-.88,3.08,3.08,0,0,1,2.18.86,2.75,2.75,0,0,1,.92,2.08,2.84,2.84,0,0,1-.9,2.1A3,3,0,0,1,315.65,444.91Z" transform="translate(0 0.03)" fill="#2f7791"/></g></g><path d="M168.56,168.7a25.37,25.37,0,1,0,25.36,25.38h0A25.39,25.39,0,0,0,168.56,168.7Z" transform="translate(0 0.03)" fill="#fff"/><circle cx="136.91" cy="157.57" r="3.55" fill="#fff"/><path d="M302.83,216.11V137.52a4.44,4.44,0,0,0-4.44-4.44h-28v-1.73a4.44,4.44,0,0,0-4.43-4.44h-74.8a4.44,4.44,0,0,0-4.44,4.44v1.73h-13v-7.89a4.44,4.44,0,0,0-4.43-4.44H143.17a4.44,4.44,0,0,0-4.44,4.44v7.89h-15a4.43,4.43,0,0,0-4.44,4.42V242.16a4.44,4.44,0,0,0,4.44,4.44H298.42a4.44,4.44,0,0,0,4.44-4.44v-2.7c1.43,0,2.59-.51,2.59-1.15v-21C305.47,216.63,304.26,216.11,302.83,216.11ZM128.09,157.54a8.82,8.82,0,1,1,8.82,8.82A8.82,8.82,0,0,1,128.09,157.54Zm72.27,49.95a34.61,34.61,0,1,1,2.71-13.43,34.61,34.61,0,0,1-2.71,13.43h0Z" transform="translate(0 0.03)" fill="#fff"/><polygon points="345.32 443.83 341.08 439.59 349.94 430.73 340.72 421.5 344.96 417.26 358.42 430.72 345.32 443.83" fill="#2f7791"/><path d="M400.27,33.76c1.1,7.39,1.34,14.9,2,22.36,0.29,3.4,1.54,6,5.56,5.75a6.18,6.18,0,0,0,5.93-6.42q0-.18,0-0.35c-1.37-11.27-2.79-22.55-4.58-33.76-1.33-8.35-3.91-10-12.08-7.14a60.29,60.29,0,0,1-20.41,3.25,41.16,41.16,0,0,0-9.89,1.24c-3.76.93-6,4.48-5.08,7.38,1.12,3.55,4,3.18,6.85,3,7.74-.59,15.48-1.07,23.22-1.6C397.9,27.1,399.39,27.81,400.27,33.76Z" transform="translate(0 0.03)" fill="#fff"/><path d="M41.7,11.59c5.47,1.06,8.76-.23,9.47-3.81,0.62-3.11-1.66-5-7.33-6C32.31-.22,20.73-0.3,9.06.28c-7.53.38-8.51,1-8.54,8.6C0.46,19.13-.23,29.4.08,39.64c0.14,4.66-.67,9.91,2.8,14.07,8.27-4.12,7.88-4.12,7.86-11.78,0-10.19.62-20.39,1-32C22.53,10,32.15,9.74,41.7,11.59Z" transform="translate(0 0.03)" fill="#fff"/><path d="M29.17,533.1c-6.27.68-7.36-.08-7.49-6.6s0.09-12.83.13-19.24c0-3.35,0-6.69-.06-10-0.07-2.48-1-4.44-3.87-4.44s-4.8,1.32-5.45,4.19a11.71,11.71,0,0,0-.07,2.5c0,12.26-.16,24.53-0.06,36.79,0,6.35,1.07,7.1,7.42,6.8,8.06-.38,16.16-1.39,24.17-0.93,6.86,0.39,11.2-1.73,14.43-9.69-2.72-.62-4.74-1.58-6.68-1.45C44.12,531.49,36.64,532.28,29.17,533.1Z" transform="translate(0 0.03)" fill="#fff"/><path d="M415.64,495.47a50.93,50.93,0,0,0-2,12.27c-0.31,6.6-.08,13.23-0.08,20.8-8.36,0-15.52,3.78-23.55,1.94a13.44,13.44,0,0,0-7.29.82,4.29,4.29,0,0,0-1.18,7.46,9.48,9.48,0,0,0,6,2.16c9.15-.74,18.31-1.69,27.38-3,6.27-.94,7.79-3.18,7.88-9.6,0.07-4.46-.05-8.92.08-13.38,0.18-6.12.77-12.24,0.61-18.34,0-1.68-2.12-3.31-3.26-5C418.61,492.85,416.13,493.86,415.64,495.47Z" transform="translate(0 0.03)" fill="#fff"/></svg>