<svg id="Layer_1" data-name="Layer 1" xmlns="http://www.w3.org/2000/svg" viewBox="0 0 351.11 126.44"><defs><style>.cls-1{fill:#fff;}.cls-2{fill:#2f7791;}.cls-3{fill:none;stroke:#2f7791;stroke-width:6px;}</style></defs><title>What&amp;apos;s_your_reaction</title><rect class="cls-1" width="351.11" height="53.94"/><rect class="cls-1" x="18.02" y="72.5" width="317.08" height="53.94"/><path class="cls-2" d="M2882,1684.88l6.24-20.12h4.24l6.24,20.12,7-20.12h5.08l-9.76,28h-4.68l-5.88-19.16h-0.32l-5.88,19.16h-4.68l-9.76-28H2875Z" transform="translate(-2841.89 -1653.13)"/><path class="cls-2" d="M2915.2,1692.72v-28h4.72v12.12h13.88v-12.12h4.72v28h-4.72v-11.44h-13.88v11.44h-4.72Z" transform="translate(-2841.89 -1653.13)"/><path class="cls-2" d="M2950.24,1686.36l-2.8,6.36h-5l12.32-28h5l12.32,28h-5l-2.8-6.36h-14Zm12.08-4.36-5.08-11.52-5.08,11.52h10.16Z" transform="translate(-2841.89 -1653.13)"/><path class="cls-2" d="M2984.32,1669.08v23.64h-4.72v-23.64h-8.48v-4.32h21.68v4.32h-8.48Z" transform="translate(-2841.89 -1653.13)"/><path class="cls-2" d="M2997,1669.28a2.07,2.07,0,0,1-1.08-1.9,2.61,2.61,0,0,1,.72-2,2.48,2.48,0,0,1,1.8-.7,2.59,2.59,0,0,1,1.82.68,2.31,2.31,0,0,1,.74,1.78,3.71,3.71,0,0,1-.72,2.14l-2.36,3.4h-2.44Z" transform="translate(-2841.89 -1653.13)"/><path class="cls-2" d="M3015.06,1668.44a6.19,6.19,0,0,0-3.38.84,2.81,2.81,0,0,0-1.32,2.54,3,3,0,0,0,1.32,2.6,20,20,0,0,0,5.62,1.94,15.45,15.45,0,0,1,6.48,2.92,6.92,6.92,0,0,1,2.18,5.54,7.34,7.34,0,0,1-2.76,5.94A11,11,0,0,1,3016,1693a17,17,0,0,1-11.64-4.52l3-3.56a13.32,13.32,0,0,0,8.8,3.68,6,6,0,0,0,3.62-1,3.07,3.07,0,0,0,1.34-2.6,2.92,2.92,0,0,0-1.26-2.52,13.26,13.26,0,0,0-4.34-1.64,38.8,38.8,0,0,1-4.68-1.36,10.57,10.57,0,0,1-2.84-1.62,6.77,6.77,0,0,1-2.48-5.76,7,7,0,0,1,2.82-6,11.36,11.36,0,0,1,7-2.1,16.75,16.75,0,0,1,5.32.88,13.91,13.91,0,0,1,4.56,2.48l-2.52,3.56a9.53,9.53,0,0,0-3.36-1.84A13,13,0,0,0,3015.06,1668.44Z" transform="translate(-2841.89 -1653.13)"/><path class="cls-2" d="M3053.76,1692.72H3049v-11l-10.4-16.92h5.16l7.64,12.72,7.64-12.72h5.16l-10.4,16.92v11Z" transform="translate(-2841.89 -1653.13)"/><path class="cls-2" d="M3090.2,1688.86a15.34,15.34,0,0,1-21,0,14.68,14.68,0,0,1,0-20.64,15.34,15.34,0,0,1,21,0A14.68,14.68,0,0,1,3090.2,1688.86Zm-3.46-17.5a9.8,9.8,0,0,0-14,0,10.44,10.44,0,0,0,0,14.36,9.8,9.8,0,0,0,14,0A10.44,10.44,0,0,0,3086.74,1671.36Z" transform="translate(-2841.89 -1653.13)"/><path class="cls-2" d="M3106.68,1686.32a7.16,7.16,0,0,0,10.4,0,9,9,0,0,0,1.92-6.08v-15.48h4.72v15.68q0,6-3.32,9.3a12.76,12.76,0,0,1-17,0q-3.32-3.26-3.32-9.3v-15.68h4.72v15.48A9,9,0,0,0,3106.68,1686.32Z" transform="translate(-2841.89 -1653.13)"/><path class="cls-2" d="M3153.44,1673.84q0,6.92-6,8.72l7.32,10.16h-6l-6.68-9.4h-6.2v9.4h-4.72v-28h10.4q6.4,0,9.16,2.16T3153.44,1673.84Zm-6.28,4a5,5,0,0,0,1.44-4q0-2.74-1.48-3.76t-5.28-1h-6v10h5.88Q3145.72,1679,3147.16,1677.8Z" transform="translate(-2841.89 -1653.13)"/><path class="cls-2" d="M2914.4,1745.84q0,6.92-6,8.72l7.32,10.16h-6l-6.68-9.4h-6.2v9.4h-4.72v-28h10.4q6.4,0,9.16,2.16T2914.4,1745.84Zm-6.28,4a5,5,0,0,0,1.44-4q0-2.74-1.48-3.76t-5.28-1h-6v10h5.88Q2906.68,1751,2908.12,1749.8Z" transform="translate(-2841.89 -1653.13)"/><path class="cls-2" d="M2940.84,1736.76v4.44h-14.92v7.4h13.4v4.2h-13.4v7.48h15.4v4.44H2921.2v-28h19.64Z" transform="translate(-2841.89 -1653.13)"/><path class="cls-2" d="M2951.32,1758.36l-2.8,6.36h-5l12.32-28h5l12.32,28h-5l-2.8-6.36h-14Zm12.08-4.36-5.08-11.52-5.08,11.52h10.16Z" transform="translate(-2841.89 -1653.13)"/><path class="cls-2" d="M2989.8,1760.44a9.87,9.87,0,0,0,4.2-.82,14.46,14.46,0,0,0,3.68-2.62l3,3.12a14,14,0,0,1-10.78,4.92,14.45,14.45,0,0,1-10.52-4.08,14.83,14.83,0,0,1,.08-20.72,14.78,14.78,0,0,1,10.76-4.16,14.07,14.07,0,0,1,10.86,4.8l-3,3.28a13.13,13.13,0,0,0-3.78-2.68,10.6,10.6,0,0,0-4.18-.76,9.94,9.94,0,0,0-7.12,2.74,9.24,9.24,0,0,0-2.88,7,9.66,9.66,0,0,0,2.86,7.12A9.26,9.26,0,0,0,2989.8,1760.44Z" transform="translate(-2841.89 -1653.13)"/><path class="cls-2" d="M3017,1741.08v23.64h-4.72v-23.64h-8.48v-4.32h21.68v4.32H3017Z" transform="translate(-2841.89 -1653.13)"/><path class="cls-2" d="M3030.64,1736.76h4.72v28h-4.72v-28Z" transform="translate(-2841.89 -1653.13)"/><path class="cls-2" d="M3066.52,1760.86a15.34,15.34,0,0,1-21,0,14.68,14.68,0,0,1,0-20.64,15.34,15.34,0,0,1,21,0A14.68,14.68,0,0,1,3066.52,1760.86Zm-3.46-17.5a9.8,9.8,0,0,0-14,0,10.44,10.44,0,0,0,0,14.36,9.8,9.8,0,0,0,14,0A10.44,10.44,0,0,0,3063.06,1743.36Z" transform="translate(-2841.89 -1653.13)"/><path class="cls-2" d="M3097.68,1736.76h4.72v28h-5.12l-15.84-20.4v20.4h-4.72v-28h4.72l16.24,20.88v-20.88Z" transform="translate(-2841.89 -1653.13)"/><path class="cls-2" d="M3118.36,1756h-4.52v-2.44a5.68,5.68,0,0,1,.38-2.38,8.82,8.82,0,0,1,1.66-2.06l2.92-2.92a3.52,3.52,0,0,0,.92-2.48,3.38,3.38,0,0,0-1-2.46,3.32,3.32,0,0,0-2.48-1,3.6,3.6,0,0,0-2.54.94,3.79,3.79,0,0,0-1.18,2.5h-4.84a8.19,8.19,0,0,1,2.78-5.58,8.86,8.86,0,0,1,5.94-2,8.54,8.54,0,0,1,5.8,1.94,6.79,6.79,0,0,1,2.24,5.42,6.08,6.08,0,0,1-1.32,4,17.25,17.25,0,0,1-1.16,1.36q-0.4.4-1.06,1t-1.12,1.08q-0.46.46-.74,0.78a3.81,3.81,0,0,0-.72,2.48v1.8Zm-2.18,8.88a3.08,3.08,0,0,1-2.18-.86,2.74,2.74,0,0,1-.92-2.08,2.84,2.84,0,0,1,.9-2.1,3,3,0,0,1,2.16-.88,3.09,3.09,0,0,1,2.18.86,2.75,2.75,0,0,1,.92,2.08,2.83,2.83,0,0,1-.9,2.1A3,3,0,0,1,3116.18,1764.92Z" transform="translate(-2841.89 -1653.13)"/><polyline class="cls-3" points="301.84 108.55 312.83 97.57 301.49 86.23"/></svg>