<svg id="Layer_1" data-name="Layer 1" xmlns="http://www.w3.org/2000/svg" viewBox="0 0 508.62 690.75" width="508.62" height="690.75"><defs><style>.cls-1{fill:#ffaf0f;}.cls-2{fill:#333;}</style></defs><title>Frame_5</title><path class="cls-1" d="M4888.43,3272c-3.71,5-3.31,7.3.69,12.08a34.61,34.61,0,0,0,4.41,4.22,24.41,24.41,0,0,1,7.89,11.94c1.31,4.32,3,8.53,4.56,13,18.82-12.54,27.39-57.05-.21-84.13C4902.69,3245.19,4897.8,3259.49,4888.43,3272Z" transform="translate(-4432.55 -3046.25)"/><path class="cls-1" d="M4931.57,3445.95a14.25,14.25,0,0,0-1.58-5.84c-5.13-9.69-12.83-17.3-21.24-26.19,0,16-2.89,24.56-12,36.79-3.92,5.24-8,10.33-12.32,15.81,9.07,7.82,12.08,18.81,16.95,29.12,11-4.06,19.67-10.52,24.88-20C4931.13,3466.65,4932,3456.23,4931.57,3445.95Z" transform="translate(-4432.55 -3046.25)"/><path class="cls-1" d="M4908.6,3330c-0.89,2.16-1.48,3.06-1.63,4a39.72,39.72,0,0,1-10.05,21.05c-3.56,4-6.49,8.47-9.8,12.65-2.37,3-2.57,5.87-.24,9,6.22,8.28,12.37,16.62,18.81,25.28,10.73-6.29,17.87-15.62,18.52-28.93a58.62,58.62,0,0,0-9.07-34.21C4913.36,3335.92,4911.12,3333.33,4908.6,3330Z" transform="translate(-4432.55 -3046.25)"/><path class="cls-1" d="M4901.41,3508.75a1.7,1.7,0,0,0-.55.49,19,19,0,0,0-.88,2.89c-2.18,12.45-6.23,24.18-13.31,34.77-1.13,1.69-1.86,3.65-3,5.35-2.95,4.49-2,8.64.72,12.83,3.77,5.77,7.37,11.66,11.09,17.46,0.79,1.23,1.81,2.31,3.26,4.14,3.93-3.48,8-6.25,11-9.9,4.61-5.67,10.34-10.51,12.78-17.92,6.37-19.41-3.23-39-19.67-50.33A2.74,2.74,0,0,0,4901.41,3508.75Z" transform="translate(-4432.55 -3046.25)"/><path class="cls-1" d="M4485.89,3253.75c-0.57-24-.61-46.86-2.36-70.15C4469,3194.94,4470.19,3238.25,4485.89,3253.75Z" transform="translate(-4432.55 -3046.25)"/><path class="cls-1" d="M4460.92,3214.32c3.18-2.92,2.85-7,2.81-10.58-0.12-10.63,4.9-19,10.76-27.14,1.63-2.27,3.56-4.39,4.8-6.86,1.05-2.1,1.31-4.6,2.05-7.41l-20.48-5.29C4443.75,3175,4443.75,3202.6,4460.92,3214.32Z" transform="translate(-4432.55 -3046.25)"/><path class="cls-1" d="M4486,3385.37c-7.55,14.53-17.13,28.6-13.33,46.4,3.41,16,10.28,27.65,17.82,31.14-0.77-26-1.54-51.58-2.3-77.17Z" transform="translate(-4432.55 -3046.25)"/><path class="cls-1" d="M4472.74,3319.62a255.14,255.14,0,0,0,4.57,27c1.13,5.26,4.08,9.72,10.39,13.79,1.45-12.77,1.11-24.14,1-35.46s1.06-22.52-.84-34.19C4480.24,3296,4471.89,3311.43,4472.74,3319.62Z" transform="translate(-4432.55 -3046.25)"/><path class="cls-1" d="M4467.61,3502.2c5.77-9.49,11.17-19.21,16.19-27.91-5.43-8.51-11.53-16.16-15.48-24.8s-5.73-18.23-8.6-27.87a25.82,25.82,0,0,0-3.56,2.26c-5.95,5.24-9.19,12-11.19,19.57-4,15.15-1.64,29.91,3.24,44.28,1.84,5.4,5.32,10.44,8.83,15C4461.12,3508.09,4464.2,3507.81,4467.61,3502.2Z" transform="translate(-4432.55 -3046.25)"/><path class="cls-1" d="M4463,3313.16c0.62-1.63,1.21-3.24,1.85-4.82,1.43-3.55,2.31-7.48,4.44-10.55,4.78-6.86,10.07-13.38,15.38-19.85,3.64-4.44,3.77-5.46-.13-9.52a94.41,94.41,0,0,1-7.69-8.43c-6-8-10.07-16.9-10.61-28-16.14,11.05-21.09,26.11-21.48,43.86C4444.54,3286.18,4455.06,3309.36,4463,3313.16Z" transform="translate(-4432.55 -3046.25)"/><path class="cls-1" d="M4464.55,3407l19.42-37.58c-3.15-3-7-6-9.92-9.76a39.37,39.37,0,0,1-6.41-11.89c-1.34-4.27-1.24-9-2-15.43-4.28,5.46-8,9.07-10.38,13.42-10.63,19.53-8.56,38.59,3.12,57C4459.83,3405,4461.41,3407.5,4464.55,3407Z" transform="translate(-4432.55 -3046.25)"/><path class="cls-1" d="M4486.5,3487c-3.91,7.15-8,14.24-11.46,21.6a31.2,31.2,0,0,0-2.7,11,89.22,89.22,0,0,0,2.62,29.56c3,11.07,9.92,19,19.39,25.86,0.76-1.72,1.54-2.63,1.5-3.51q-2.29-43.8-4.72-87.59l-1.57-1.16A39.38,39.38,0,0,0,4486.5,3487Z" transform="translate(-4432.55 -3046.25)"/><path class="cls-1" d="M4905.75,3607.23c0.48,3.5,1.75,7.15,1.21,10.49-1.92,11.78-4.11,23.54-6.91,35.13-1.64,6.8-4.63,13.28-7.24,20.54,19.87-8.37,26.82-23.94,27-43.58,0.09-11.9-6.08-20.71-14.2-28.61A17.31,17.31,0,0,0,4905.75,3607.23Z" transform="translate(-4432.55 -3046.25)"/><path class="cls-1" d="M4913.4,3150.82c-10.68,4.6-21.21,7.48-32.07,13.56,10.77,12.57,20,24.62,25.6,39.91C4916.94,3186.85,4919.95,3169.69,4913.4,3150.82Z" transform="translate(-4432.55 -3046.25)"/><path class="cls-1" d="M4877,3366.4c5.08-3.77,8.41-9.15,12.21-14.13,9.59-12.57,11.06-26.37,6.1-41a102.89,102.89,0,0,0-5.4-12.64c-2.52-5.1-6.79-8.29-12.07-10.62-0.92,26.28-1.82,51.93-2.71,77.58Z" transform="translate(-4432.55 -3046.25)"/><path class="cls-1" d="M4689.3,3154.16c30.54-.6,61.07-1.1,91.62-1.21q22.45-.08,44.89.14c12.9,0.14,27.79,3.34,40.43,1.64a10.08,10.08,0,0,0,5-2.5c1.46-1.31,2.34-3.26,3.93-5.59-2-3.43-3.34-6.93-5.69-9.49-29.83-32.46-69.08-14.42-106.24-15.91-3.09-.12-6-3.18-9.16-3.5-3-.3-6.08,1.79-9.16,1.89-35.06,1.16-69.71-.36-104.74-0.71a14.36,14.36,0,0,0-7.66,2.46c-13,8.8-26.38,9.73-40.68,3.33a139.49,139.49,0,0,0-20.92-7.33c-13.12-3.52-27.36,2.49-37.73,10.34-4.43,3.36-24.84,28.42-26.88,28.17,2.59,0.31,4,.64,5.47.65C4570.44,3156.81,4630.24,3155.31,4689.3,3154.16Z" transform="translate(-4432.55 -3046.25)"/><path class="cls-1" d="M4675.84,3111.76c5.82,0.5,11.68.59,17.52,0.7,5.57,0.11,11.15.3,16.69-.07,1.95-.13,3.91-1.64,5.66-2.82a42.35,42.35,0,0,0,4.51-4c5.43-4.94,8.8-11.27,12.7-17.24l-1.41-2c-3.63.82-7.3,1.47-10.87,2.49-6.9,2-11.25,0-14.48-6.69a81.66,81.66,0,0,0-13.49-20.4,33.13,33.13,0,0,0-8.7,16.37c-2.07,9.64-8.14,12.67-17,12.59a22.85,22.85,0,0,0-4.57.3,48.19,48.19,0,0,0-5.22,1.67c4.28,6.09,7.79,11.68,12,16.72C4670.47,3111,4673.52,3111.56,4675.84,3111.76Z" transform="translate(-4432.55 -3046.25)"/><path class="cls-1" d="M4879.6,3270.72c7-10.18,12.56-19.27,14-30.15,1.19-8.83,1.83-17.72,2.63-26.6,1.26-14-6.77-23.84-14.36-33.88l-2.5.48c0,9.83-.12,19.66-0.11,29.49,0,10.19-.14,20.39.26,30.56C4879.92,3250.15,4876.76,3259.74,4879.6,3270.72Z" transform="translate(-4432.55 -3046.25)"/><path class="cls-1" d="M4831.15,3692.64c-0.3,1.58-.56,2.11-0.46,2.54,2.4,10,9.52,16.7,17.16,22.6,2.11,1.63,6.5,1.45,9.44.64,7.07-1.94,13.21-12.33,12.8-21.46C4856.64,3697.11,4844.06,3692.73,4831.15,3692.64Z" transform="translate(-4432.55 -3046.25)"/><path class="cls-1" d="M4899.12,3418.61c-4.25-18.59-14.35-34.5-23.2-35.63-3.74,26.47-1.07,53.05-2.47,80.22C4891.56,3450.71,4902.24,3432.27,4899.12,3418.61Z" transform="translate(-4432.55 -3046.25)"/><path class="cls-1" d="M4879.19,3543.48c0.79-1.85,1.1-4,2.22-5.6,6.87-9.83,8.92-21.13,9.63-32.64,0.62-10-2.93-19.1-9.11-27-1.53-1.95-4.1-3.08-7.09-5.24-1.76,8.13-.92,70.14.63,74.79a5.44,5.44,0,0,0,1.89-1A16,16,0,0,0,4879.19,3543.48Z" transform="translate(-4432.55 -3046.25)"/><path class="cls-1" d="M4898.22,3616.22c-0.8-8.8-4.51-16.58-8.25-24.44-3.53-7.4-7.26-14.49-14.2-20.69,0,7-.17,13,0,18.93,0.33,9.16.83,18.32,1.44,27.47,0.82,12.42,1.93,24.82,2.67,37.25,0.34,5.52.54,11,3.66,17.28,1.79-3.7,3.54-6.24,4.29-9,3.61-13.52,7-27.1,10.33-40.7A18.89,18.89,0,0,0,4898.22,3616.22Z" transform="translate(-4432.55 -3046.25)"/><path class="cls-1" d="M4811.92,3690.54c-6.08-.36-12.17-0.45-18.25-0.54-6.26-.09-12.53,0-19.09,0,0,1.91-.31,3.25,0,4.38,3.51,11,10.86,18.79,20.86,24.05,4,2.09,6.65,1,10-2.92a61.22,61.22,0,0,0,10.77-19.08C4817.61,3692.62,4816.31,3690.8,4811.92,3690.54Z" transform="translate(-4432.55 -3046.25)"/><path class="cls-1" d="M4709.12,3691.25c2.71,6.42,4.57,11.12,6.69,15.71a28.53,28.53,0,0,0,3.71,5.77c7.93,9.84,19.94,10.84,28.34,1.65,4.91-5.37,8.63-11.86,12.6-18,0.93-1.45.73-3.62,1.17-6.17C4744,3689.58,4727.35,3690.39,4709.12,3691.25Z" transform="translate(-4432.55 -3046.25)"/><path class="cls-1" d="M4514.6,3697.65c2.39,4.26,3.91,7.42,5.83,10.32,6.28,9.49,14.72,12.45,25.64,10.31,12.27-2.4,16.23-12.55,21.6-22C4550.07,3696.32,4532.91,3695.79,4514.6,3697.65Z" transform="translate(-4432.55 -3046.25)"/><path class="cls-1" d="M4475.63,3627.94c-1.9,19.83,1.43,38.06,18,51.28l1.79-.5c0.33-14.89.94-29.79,0.89-44.68,0-15.1,2.55-30.29-.91-46.77C4481.09,3598.16,4477.1,3612.6,4475.63,3627.94Z" transform="translate(-4432.55 -3046.25)"/><path class="cls-1" d="M4465.81,3617.76c-3.66,2.3-5.63,5.39-7.52,8.68-3.94,6.83-3.09,14.3-3,21.62,0.18,14.18,5.24,26.25,16,35.78,5.57,4.91,12.09,6.68,19.29,6.61C4471.05,3669.83,4461.76,3659.42,4465.81,3617.76Z" transform="translate(-4432.55 -3046.25)"/><path class="cls-1" d="M4584,3695.29l-1.23,1.76c3,4.29,5.41,9.17,9.08,12.78,11.88,11.67,22.58,14.08,34.53.58a22.27,22.27,0,0,0,2.1-2.22c2.48-3.76,5.16-7.46,5-13.06C4616.83,3693.67,4600.44,3695.51,4584,3695.29Z" transform="translate(-4432.55 -3046.25)"/><path class="cls-1" d="M4471.7,3602.79c4.49-7,8.84-14.05,13.8-21.94-8.14-7.92-16.84-15.59-19.39-27-2.47-11-3.53-22.32-5.35-34.5-8.83,9.14-14.87,19.13-15.82,31.49a171.2,171.2,0,0,0,.16,22.13c0.71,13.42,7.52,23.52,18.07,31.33C4467.47,3607.53,4468.8,3607.29,4471.7,3602.79Z" transform="translate(-4432.55 -3046.25)"/><path class="cls-1" d="M4647.22,3695.55c3.65,11.55,10.46,19.58,21.24,24.05,4.17,1.73,7.79,1,11-2.49,6.77-7.38,11.24-16,15.15-25.16C4686.34,3689.4,4658.3,3691.51,4647.22,3695.55Z" transform="translate(-4432.55 -3046.25)"/><path class="cls-2" d="M4933.8,3480.09c9.09-19.35,12.22-40.19-5.14-58.25-4.55-4.73-8.2-10.32-12.36-15.64,3.05-3.64,5.61-6.8,8.28-9.86,9.79-11.2,11.16-24.21,7.9-38-3-12.52-7.62-24.37-15.22-34.89-2.11-2.92-2.2-5.56.47-8.18,28.53-27.95,11.64-65.95-4.35-94.42-1.85-3.29-1.71-6.05.8-9.7,7-10.12,12.15-21,12.69-33.85a107.23,107.23,0,0,0-2.76-28.83c-1.84-8,8.76-14.53,7.16-21.47-1.88-8.12-13.71-13.81-21.12-13.59-11.44.33-19.61,6.41-26.38,15l-3.84,4.85a8.39,8.39,0,0,1-1.54-.63c-0.76-.68-1.46-1.42-2.22-2.1-14.41-13.24-30.88-21.62-50.94-20.92-7.62.26-15.22,1.2-22.8,2.14-10.09,1.25-20.12,2.95-30.21,4.17-6.91.84-15.3-4.54-16.26-10-0.93-5.21,4.06-12.22,10.39-14.61a7,7,0,0,1,1.46-.45c3-.43,6.49-1.59,8.5,1.46,2.14,3.25-.64,5.56-2.61,8.05-1.89-.37-3.71-1.23-5.29-0.91-1.78.36-4.55,1.6-4.73,2.79-1.84,11.87,15.58,6.39,19.44,1.32,15.14-19.89-22.13-28-31.93-10.78-7.17,12.62-6,23.09-23.63,18.13l19.79-28.22c-7.41-7.06-17-4.26-26-3-3.7.51-6.3-.32-8.33-3.73-4.93-8.33-10.27-16.4-15.22-24.72-3.8-6.4-8.09-6.69-11.78-.1-4.12,7.34-7.9,14.89-11.5,22.51-4.54,9.62-7.86,9.72-18.07,9.58-4.14-.06-20.18-1.2-13.79,7,0.94,1.21,2.23,2.15,3.09,3.39,3.68,5.25,8.09,10.07,11.44,17.3l-16-2.38c-0.44-2.92-.88-5.39-1.19-7.87-1.83-14.75-16.64-27-31.4-19.75-10.26,5.06-18.72,27.7-4.38,32.53a13.61,13.61,0,0,0,18.27-12.64,5.45,5.45,0,0,0-1.81-3.82c-4.89-4.06-13.81,8.1-13.14,9.22a12,12,0,0,1,17.08-16.07c11,7.47,4.71,24.93-4.88,30.12a20.58,20.58,0,0,1-19.83.45c-3.89-1.93-7.69-4-11.64-5.84-38.79-17.85-64.64,10.14-90.31,35.27,1.37-1.34-15.4-24.42-17.37-26-13.55-10.85-41.85,2.55-31.05,21,2.47,4.21,1.66,7.35-.36,11.27-3.15,6.08-6.33,12.29-8.26,18.81-5.17,17.47-2.24,33.31,11.24,46.44,1.4,1.36,2.62,2.91,4.11,4.59-1.94,2.66-3.43,5-5.26,7.13-10,11.27-15.47,23.76-15.73,39.43-0.32,19,7.17,34,19,47.66,1.59,1.84,2.91,3.92,4.26,5.77-27.1,28.32-24.2,62.22-5.05,88.3-18,13.73-23.21,39-19.67,60.43a73.17,73.17,0,0,0,7.11,21.46c1.21,2.36,11.5,14.85,11.12,16.3a9.91,9.91,0,0,1-.45,1.69c-14.37,21.25-28,54-11.57,78.19,4.82,7.08,10.45,13.6,16,20.76-13.46,14.11-13.54,31.72-9.25,49.65,4.45,18.57,16.25,31.08,34.78,36.33-2.59,2.89-4.56,5.23-6.68,7.43-6.45,6.67-11.76,21.94-1.68,28,5.15,3.09,12,2.28,17.14-.84,10.14-6.15,12.72-17.29,16.31-27.71,2.91,3.58,5.31,5.91,6.94,8.68,6.78,11.51,22.91,13.67,34.71,10,12-3.7,18.09-13.05,25.48-22.33,2.64,3.1,5.06,5.31,6.72,8,5.58,9,17.1,16.92,27.91,16.91,6.49,0,12.74-2.79,18-6.64s9.55-8.77,13.85-13.63c5.19,5.7,10.22,11.85,16.34,16.59,9.8,7.59,25.15,5.88,31.13-4.27,3.09-5.25,6.85-10.11,10.42-15.07a23.38,23.38,0,0,1,3.33-3.08c9.1,15.39,17.77,28.55,38.6,24.69a35,35,0,0,0,25.66-21.11c9.67,10.71,22,26,38.34,20.12,8.52-3.07,14.86-10.61,18.38-19-0.09.2,9.77,10.76,11,11.87a27,27,0,0,0,14.84,7.27c10.73,1.36,17.93-4.38,25.44-10.95,8.4,11.32,20.14,30.65,37,19.32,11.37-7.66,10.18-24.25-.41-31.87-5.3-3.8-10.86-7.23-16.41-10.89,2-6.27,3.66-8.75,13.27-15.46,14.52-10.13,21.36-24,22.47-41.44,0.68-10.65-1.62-20.26-7.53-29-3-4.4-6-8.74-9-13,2.52-4.22,4.88-8.08,7.14-12,1.39-2.4,2.24-5.23,4-7.24,7.13-7.95,9.25-17.68,9.35-27.71,0.1-9.48-1.58-18.76-8.27-26.46-5-5.71-9.34-11.92-14.15-18.11,4.38-3.24,8.9-6.15,12.89-9.66C4927.72,3487.55,4931.85,3484.25,4933.8,3480.09ZM4924.21,3373c-0.65,13.31-7.78,22.64-18.52,28.93-6.44-8.66-12.59-17-18.81-25.28-2.34-3.11-2.14-6,.24-9,3.32-4.18,6.25-8.69,9.8-12.65A39.72,39.72,0,0,0,4907,3334c0.15-1,.74-1.86,1.63-4,2.51,3.38,4.75,6,6.53,8.85A58.62,58.62,0,0,1,4924.21,3373ZM4906,3313.18c-1.57-4.42-3.25-8.63-4.56-13a24.41,24.41,0,0,0-7.89-11.94,34.61,34.61,0,0,1-4.41-4.22c-4-4.78-4.4-7.12-.69-12.08,9.37-12.49,14.26-26.79,17.34-42.94C4933.38,3256.13,4924.8,3300.63,4906,3313.18Zm7.42-162.36c6.54,18.88,3.53,36-6.48,53.47-5.64-15.29-14.82-27.33-25.6-39.91C4892.19,3158.3,4902.73,3155.41,4913.4,3150.82Zm-34.12,59.26c0-9.83.07-19.66,0.11-29.49l2.5-.48c7.6,10,15.62,19.89,14.36,33.88-0.8,8.87-1.44,17.77-2.63,26.6-1.46,10.88-7,20-14,30.15-2.84-11,.32-20.57-0.06-30.09C4879.14,3230.46,4879.29,3220.26,4879.28,3210.07Zm-1.48,77.9c5.28,2.32,9.56,5.52,12.07,10.62a102.89,102.89,0,0,1,5.4,12.64c5,14.67,3.49,28.47-6.1,41-3.8,5-7.13,10.35-12.21,14.13l-1.87-.84C4876,3339.9,4876.88,3314.25,4877.8,3288Zm-220.6-195.29a48.19,48.19,0,0,1,5.22-1.67,22.85,22.85,0,0,1,4.57-.3c8.84,0.08,14.9-2.95,17-12.59a33.13,33.13,0,0,1,8.7-16.37,81.66,81.66,0,0,1,13.49,20.4c3.23,6.67,7.58,8.65,14.48,6.69,3.57-1,7.25-1.67,10.87-2.49l1.41,2c-3.9,6-7.27,12.3-12.7,17.24a42.35,42.35,0,0,1-4.51,4c-1.75,1.18-3.71,2.7-5.66,2.82-5.54.37-11.13,0.18-16.69,0.07-5.85-.12-11.7-0.21-17.52-0.7-2.32-.2-5.37-0.79-6.68-2.36C4665,3104.36,4661.47,3098.77,4657.2,3092.68Zm-124,35c10.36-7.84,24.61-13.85,37.73-10.34a139.49,139.49,0,0,1,20.92,7.33c14.31,6.4,27.68,5.47,40.68-3.33a14.36,14.36,0,0,1,7.66-2.46c35,0.35,69.68,1.88,104.74.71,3.08-.1,6.21-2.19,9.16-1.89,3.14,0.32,6.07,3.37,9.16,3.5,37.16,1.48,76.42-16.55,106.24,15.91,2.35,2.56,3.68,6.06,5.69,9.49-1.58,2.33-2.47,4.28-3.93,5.59a10.08,10.08,0,0,1-5,2.5c-12.64,1.69-27.53-1.5-40.43-1.64q-22.45-.25-44.89-0.14c-30.54.11-61.08,0.62-91.62,1.21-59.06,1.15-118.87,2.65-177.48,2.38-1.43,0-2.87-.33-5.47-0.65C4508.39,3156.14,4528.81,3131.08,4533.23,3127.73Zm-42.1,356.19q2.39,43.79,4.72,87.59c0,0.87-.74,1.79-1.5,3.51-9.47-6.86-16.37-14.78-19.39-25.86a89.22,89.22,0,0,1-2.62-29.56,31.2,31.2,0,0,1,2.7-11c3.47-7.36,7.54-14.45,11.46-21.6a39.38,39.38,0,0,1,3.06-4.21Zm-18.44-52.14c-3.8-17.8,5.79-31.87,13.33-46.4l2.19,0.37c0.76,25.6,1.53,51.19,2.3,77.17C4483,3459.42,4476.1,3447.74,4472.69,3431.77Zm16-106.82c0.08,11.32.43,22.68-1,35.46-6.32-4.07-9.26-8.53-10.39-13.79a255.14,255.14,0,0,1-4.57-27c-0.85-8.19,7.49-23.59,15.15-28.86C4489.79,3302.43,4488.65,3313.74,4488.73,3325Zm-5.2-141.35c1.74,23.28,1.78,46.17,2.36,70.15C4470.19,3238.25,4469,3194.94,4483.53,3183.6ZM4460.86,3157l20.48,5.29c-0.74,2.82-1,5.31-2.05,7.41-1.24,2.47-3.16,4.59-4.8,6.86-5.85,8.14-10.88,16.51-10.76,27.14,0,3.54.37,7.67-2.81,10.58C4443.75,3202.6,4443.75,3175,4460.86,3157Zm-16.08,118.87c0.39-17.75,5.34-32.81,21.48-43.86,0.54,11.05,4.61,19.94,10.61,28a94.41,94.41,0,0,0,7.69,8.43c3.9,4.06,3.78,5.08.13,9.52-5.31,6.47-10.6,13-15.38,19.85-2.13,3.06-3,7-4.44,10.55-0.64,1.59-1.23,3.19-1.85,4.82C4455.06,3309.36,4444.54,3286.18,4444.77,3275.91Zm10.48,69.85c2.37-4.35,6.1-8,10.38-13.42,0.76,6.44.66,11.17,2,15.43a39.37,39.37,0,0,0,6.41,11.89c2.89,3.74,6.77,6.72,9.92,9.76L4464.55,3407c-3.14.48-4.72-2-6.17-4.27C4446.7,3384.35,4444.62,3365.29,4455.25,3345.76Zm-7,142c-4.89-14.37-7.25-29.13-3.24-44.28,2-7.56,5.24-14.34,11.19-19.57a25.82,25.82,0,0,1,3.56-2.26c2.87,9.65,4.66,19.26,8.6,27.87s10,16.29,15.48,24.8c-5,8.7-10.43,18.42-16.19,27.91-3.41,5.61-6.49,5.88-10.56.56C4453.54,3498.17,4450.06,3493.14,4448.22,3487.73ZM4445.1,3573a171.2,171.2,0,0,1-.16-22.13c1-12.36,7-22.35,15.82-31.49,1.82,12.18,2.88,23.5,5.35,34.5,2.55,11.37,11.25,19,19.39,27-5,7.89-9.3,15-13.8,21.94-2.9,4.5-4.23,4.74-8.54,1.55C4452.62,3596.53,4445.8,3586.43,4445.1,3573Zm26.23,110.82c-10.78-9.52-15.84-21.6-16-35.78-0.1-7.32-.95-14.79,3-21.62,1.89-3.28,3.86-6.38,7.52-8.68-4.06,41.67,5.24,52.07,24.8,72.69C4483.42,3690.51,4476.89,3688.75,4471.32,3683.83Zm25-49.79c0,14.89-.57,29.79-0.89,44.68l-1.79.5c-16.59-13.23-19.93-31.46-18-51.28,1.47-15.34,5.46-29.79,19.8-40.66C4498.9,3603.76,4496.29,3619,4496.34,3634Zm49.72,84.24c-10.92,2.14-19.36-.82-25.64-10.31-1.92-2.9-3.44-6.06-5.83-10.32,18.31-1.86,35.47-1.33,53.07-1.41C4562.29,3705.74,4558.34,3715.88,4546.07,3718.28Zm82.45-10.08a22.27,22.27,0,0,1-2.1,2.22c-11.94,13.5-22.65,11.08-34.53-.58-3.67-3.61-6.09-8.49-9.08-12.78l1.23-1.76c16.39,0.22,32.79-1.62,49.5-.14C4633.68,3700.75,4631,3704.45,4628.52,3708.2Zm51,8.9c-3.23,3.52-6.85,4.22-11,2.49-10.78-4.47-17.59-12.51-21.24-24.05,11.08-4,39.13-6.14,47.42-3.6C4690.72,3701.07,4686.26,3709.73,4679.49,3717.11Zm81-20.75c-4,6.17-7.69,12.66-12.6,18-8.4,9.19-20.41,8.19-28.34-1.65a28.53,28.53,0,0,1-3.71-5.77c-2.12-4.59-4-9.29-6.69-15.71,18.23-.86,34.86-1.67,52.5-1.07C4761.18,3692.73,4761.38,3694.91,4760.45,3696.35Zm55.78,0.06a61.22,61.22,0,0,1-10.77,19.08c-3.33,3.91-6,5-10,2.92-10-5.26-17.36-13.07-20.86-24.05-0.36-1.13,0-2.46,0-4.38,6.56,0,12.83-.07,19.09,0,6.09,0.08,12.18.17,18.25,0.54C4816.31,3690.8,4817.61,3692.62,4816.24,3696.41Zm41.06,22c-2.94.81-7.33,1-9.44-.64-7.64-5.9-14.76-12.57-17.16-22.6-0.1-.44.16-1,0.46-2.54,12.9,0.09,25.49,4.47,38.94,4.32C4870.51,3706.1,4864.36,3716.48,4857.29,3718.43Zm14.91-30.35c-10.69,2.12-22.52-2.85-33.47-3.1q-23.38-.54-46.77-0.59c-31.14-.08-62.28.42-93.41,1.21-61,1.55-121.93,4.23-182.91,5.93-11.91.34-9.56-8.93-9.73-18.37-0.27-14.95-.71-29.9-1.07-44.84-0.7-29.25-2.1-58.57-2.1-87.82-2.93-122.72-7.12-245.53-8.86-368.25,0-1.52.15-3,.29-5.85,3.91-.48,7.36-1.19,10.83-1.28l5.06-.12c48.46-.9,96.88-3,145.32-4.6,62.11-2,124.35-3,186.42.77,6.78,0.42,18.08-.94,24.28,1.71,5,2.15,5,7,5.7,13,1.7,14-.48,28.91-1.09,43q-2,46.46-3.2,92.94-2.4,93.41-1.53,186.86c0.56,60,3.39,119.29,7.25,178.92A34.91,34.91,0,0,1,4872.2,3688.07Zm1.24-224.88c1.4-27.17-1.26-53.75,2.47-80.22,8.85,1.14,18.95,17,23.2,35.63C4902.24,3432.27,4891.56,3450.71,4873.45,3463.2Zm1.39,9.85c3,2.16,5.56,3.29,7.09,5.24,6.19,7.86,9.73,16.94,9.11,27-0.72,11.51-2.76,22.81-9.63,32.64-1.12,1.6-1.43,3.75-2.22,5.6a16,16,0,0,1-1.84,3.32,5.44,5.44,0,0,1-1.89,1C4873.91,3543.18,4873.07,3481.17,4874.83,3473Zm8.75,199c-3.12-6.3-3.33-11.76-3.66-17.28-0.75-12.43-1.85-24.83-2.67-37.25-0.61-9.15-1.11-18.3-1.44-27.47-0.21-6,0-12,0-18.93,6.94,6.2,10.67,13.29,14.2,20.69,3.75,7.86,7.45,15.64,8.25,24.44a18.89,18.89,0,0,1,0,6.06c-3.31,13.6-6.72,27.18-10.33,40.7C4887.13,3665.78,4885.37,3668.32,4883.58,3672Zm36.19-42.21c-0.14,19.64-7.08,35.21-27,43.58,2.61-7.26,5.6-13.73,7.24-20.54,2.8-11.59,5-23.35,6.91-35.13,0.54-3.34-.73-7-1.21-10.49a17.31,17.31,0,0,1-.18-6C4913.69,3609.1,4919.85,3617.91,4919.77,3629.81Zm2.74-71c-2.43,7.42-8.16,12.25-12.78,17.92-3,3.65-7,6.42-11,9.9-1.45-1.83-2.47-2.91-3.26-4.14-3.72-5.8-7.32-11.69-11.09-17.46-2.74-4.2-3.67-8.34-.72-12.83,1.12-1.7,1.85-3.66,3-5.35,7.08-10.59,11.13-22.32,13.31-34.77a19,19,0,0,1,.88-2.89,1.7,1.7,0,0,1,.55-0.49,2.74,2.74,0,0,1,1.43-.23C4919.28,3519.85,4928.88,3539.44,4922.51,3558.85Zm-21.17-63.21c-4.87-10.31-7.87-21.31-16.95-29.12,4.28-5.48,8.39-10.56,12.32-15.81,9.16-12.24,12-20.79,12-36.79,8.42,8.89,16.11,16.5,21.24,26.19a14.25,14.25,0,0,1,1.58,5.84c0.46,10.29-.44,20.7-5.36,29.67C4921,3485.12,4912.38,3491.58,4901.34,3495.64Z" transform="translate(-4432.55 -3046.25)"/></svg>
