<svg id="Layer_1" data-name="Layer 1" xmlns="http://www.w3.org/2000/svg" viewBox="0 0 565.52 690.25" width="565.52" height="690.25"><defs><style>.cls-1{fill:#2f7791;}.cls-2{fill:#333;}.cls-3{fill:#563b24;}</style></defs><title>Frame_4</title><path class="cls-1" d="M6397.17,3224.25c-5.54-17.16-17.57-29.67-31.52-40.42-5.15-4-10.71-7.41-16.07-11.08l-11,15.22c2.64,3.21,5.56,6.69,8.41,10.2,8.91,11,15.11,23.6,21.94,35.88,10.7,19.24,21.31,38.46,26.92,60,3,11.59,7.61,22.81,7.75,35.06,0.16,13.78.65,27.56,0.88,41.35,0.19,11,.4,21.94.26,32.91-0.16,13.28-.73,26.56-1,39.84-0.22,9.69.23,19.42-.52,29.07-2.43,31.33-12.06,59.1-27.27,86.35-13.2,23.63-29.72,48.48-54.49,61.2-3.31,1.7-4.39,3.86-2.85,7.45,1.6,3.75,2.74,7.69,4.2,11.51,2.51,6.58,5.15,8,11.73,5.44,34.44-13.28,48.42-43,58.88-76.43,6.43-20.55,12.46-41.23,18.29-62,4.87-17.31,9.34-34.74,14.3-52,1.84-6.43,5.26-11.66,9.28-16.53,3.86-4.68,8.31-9,12.48-13.82-25.2-32.18-29.26-68-32.37-107.69A395.68,395.68,0,0,0,6397.17,3224.25Z" transform="translate(-5896.6 -3036.78)"/><path class="cls-1" d="M6360.84,3567.59c25.16-31.55,32.69-79.86,35.66-119.24,2.57-34.06,1.56-69-.32-103a235.33,235.33,0,0,0-26.33-96c-17.87-34.1-42.13-63-75.66-82.33-31.19-18-66.83-27.91-102.69-30.06-52.27-3.13-113.52,6.35-161.21,34.38-7.6,5.43-14.73,11.42-21.15,17a287.42,287.42,0,0,0-35.37,36.5c-2.32,3.7-4.53,7.49-6.54,11.45-22.92,45.18-26.74,105.39-26.06,155.21,1,76.64,15.38,154.77,75.18,208,32,28.49,73.48,44,115.2,50.83a323.33,323.33,0,0,0,55.62,4.72c27-.24,53.61-4.72,80.12-15.43C6305.47,3624.21,6335.4,3599.5,6360.84,3567.59Zm-206.08,67a222.44,222.44,0,0,1-160.41-97.4c-21.46-31.9-26.29-74.46-28.53-112.29q-0.29-4.95-.48-9.89c-1.14-29.95.45-59.94,2.67-89.81,3.32-44.81,21.44-84.47,56.13-114.14,34.19-29.25,79.37-42.42,123.54-45.9,43.77-3.45,92.86,0,133,18.82a159.55,159.55,0,0,1,21.52,12.13,133.59,133.59,0,0,1,36.47,36.28c9.77,14.62,13.92,30.92,20.06,47,14.76,38.51,21.1,82.15,23.87,123.09,5.2,76.95-25,164.88-92.72,207.79C6248.58,3636.39,6202.21,3640,6154.75,3634.59Z" transform="translate(-5896.6 -3036.78)"/><path class="cls-1" d="M6311,3631.95c-0.48-1.24-1.87-2.12-2.75-3.06-12.73,6.55-28.28,14.3-41.87,17.71-1.09.27,13.21,18.48,15.38,20.69,6.62,6.73,17.16,15.09,27.23,11.15,8.88-3.47,13.94-12.28,11.22-21.46C6317.74,3648.47,6314.27,3640.24,6311,3631.95Z" transform="translate(-5896.6 -3036.78)"/><path class="cls-1" d="M6047.27,3670.07a21.18,21.18,0,0,0,23,16.93c13-1.56,23.59-8.09,32.61-17.12,3.31-3.3,5.54-7.68,8.26-11.57l-55.46-22.07C6048.46,3646.05,6044.9,3657.26,6047.27,3670.07Z" transform="translate(-5896.6 -3036.78)"/><path class="cls-1" d="M6028.93,3618.93c-6.44-4.14-13-8.11-19.47-12.19-19.44-12.21-32.43-35.17-43.11-54.95a281,281,0,0,1-25.38-65.68c-10.74-43.28-5.89-85.2-6.75-129-0.36-18.29,3.11-36.1,4.75-54.12,1.46-16.07,6.62-31.43,11-46.91a88.59,88.59,0,0,1,22-38c5.78-6,11.71-11.79,17.67-17.59q10.1-10.1,20.25-20.15l-5.9-15.42a129.37,129.37,0,0,0-58.57,53c-14.15,24.59-15.65,48.65-16.79,76.11-1,25,.71,52.71-9.83,76.2-2.78,6.2-6.46,12.16-7.57,18.87-1.92,11.59,9.67,23,11.9,34.67,3.88,20.31,2.71,42.3,5.5,63.09,3.08,23,7.85,45.91,16.3,67.59s21.08,42.33,37.85,58.74,36.15,23,56,33.39l8.21-15.7C6040.72,3626.72,6034.88,3622.75,6028.93,3618.93Z" transform="translate(-5896.6 -3036.78)"/><path class="cls-1" d="M6021.47,3171.06c8.79-5.36,17.34-11.45,26.65-16s19.57-7.71,29-11.31c-2.44-13.14-11.35-21.1-19.81-29.11-10.72-10.16-22.86-10.75-34.68-1.85a31.33,31.33,0,0,0-13.18,28.68C6009.95,3150.75,6011.58,3167.17,6021.47,3171.06Z" transform="translate(-5896.6 -3036.78)"/><path class="cls-1" d="M6197,3661.05c1,10.61,8.58,29.29,14.89,35,12.69,11.43,31.32,15.74,41.89-4.67,4.62-8.91,5.51-18.5,5.92-28.11,0.18-4-1.87-8.13-3.12-13C6236.59,3656,6217.35,3660.41,6197,3661.05Z" transform="translate(-5896.6 -3036.78)"/><path class="cls-1" d="M6157.45,3130.7a7.85,7.85,0,0,0,.78-2c0-21-20-47-42.88-42.77-13,2.4-21.63,14.1-25.83,25.88-3.08,8.62-2.54,17.38-1.92,26.27C6111.2,3136.74,6134.6,3134.78,6157.45,3130.7Z" transform="translate(-5896.6 -3036.78)"/><path class="cls-1" d="M6124.35,3658.35c-0.75,1.62-1.29,2.28-1.35,3-1,11.19,1.72,21.85,5.34,32.22,2.49,7.13,9.39,11,17,10.49,8.45-.59,15.59-3.54,21.3-10.39,7.49-9,11.92-19.29,17.08-31.56C6162.42,3665.77,6143.19,3662.92,6124.35,3658.35Z" transform="translate(-5896.6 -3036.78)"/><path class="cls-1" d="M6225,3134.24c9.18,1.59,18.23,3.93,28.14,6.13,0.39-3,.57-4.2.72-5.43,1.21-10-3-18.81-6-28-7.77-24.11-31.08-37.81-54.55-24.26a41.26,41.26,0,0,0-17.9,21.56c-0.39,1.09-1.63,6.3-3,11.67-1.64,6.53-3.46,13.3-4.18,13.27,10.13,0.51,19.46.71,28.73,1.53S6215.71,3132.63,6225,3134.24Z" transform="translate(-5896.6 -3036.78)"/><path class="cls-1" d="M6332.5,3180.55c1.73-2.18,3.25-3.56,4.12-5.27,7.64-15.06,11.22-33.45,6.81-50.07-2.68-10.09-9.81-19.6-19.88-22.3-6.41-1.72-13.33-.53-19.46,2-14.46,6.05-27.08,17.47-37,29.39-2,2.47-4.38,5.14-2.9,9.64C6288.25,3152.78,6311.79,3163.54,6332.5,3180.55Z" transform="translate(-5896.6 -3036.78)"/><path class="cls-2" d="M6460.15,3419.84c-21.89-12.6-27.3-35.86-31.11-59.08-4.37-26.58-5.26-53.57-8.87-80.24-3-22.33-8.28-44.79-18.43-65-11.52-23-29.2-37-49-52.52,1.78-6,5.63-10.88,9.37-15.61,9.69-12.25,21.87-20.58,37.82-22.47,6.54-.78,9.3,1.4,10.49,8.71l-8.28-3.55-3.9,12.79c-1.12,3.67.07,6.58,3.1,8.7s6.1,3.25,9.94,1.22c9.86-5.23,12.17-20.34,5.55-28.87-13.33-17.16-43-.29-54.52,10.9-8.86,8.6-7.89-4.75-9.87-11.51-2.44-8.31-6.14-16.45-13-22-6.36-5.13-14.75-7.4-22.9-7.07a50.91,50.91,0,0,0-23.17,7.18c-3.56,2-17.81,8.76-19.1,12.21,1.12-3,1.39-4.53,2.17-5.71,3.67-5.51,7.18-11.17,11.32-16.32,7.62-9.48,17.25-16.63,28-22.24,2.15-1.12,4.49-2.33,7.52-.08-1.45,1.51-2.69,2.67-3.78,4-5.38,6.31-2.82,16.56,6.18,17.34,17.16,1.49,15-24.87,1.84-29.41-6.26-2.15-13.31-.7-19.16,2.4-18.75,10-34.83,29.51-43.9,48.37-0.7,1.45-1.88,2.67-3.43,4.82-1.06-3.14-1.82-5.25-2.48-7.39-11-34.94-40-50.25-71.93-29.16-2,1.31-3.87,2.77-5.8,4.16a14.3,14.3,0,0,1-.17-7.53c1.79-8.46,1.61-17.11-1.46-24.95-6.61-16.82-18.6-20-31-7.38-8.51,8.69-11,19.27-7.95,31.16,0.64,2.48,2.72,4.95.76,8.25-19.81-12.05-44.42-1.37-54.88,17.91a55.06,55.06,0,0,1-4.3,5.81c-2.44-3.86-4.1-7-6.26-9.81-12.28-15.78-34.85-35.86-53.88-17.79-2.13,2-4.06,4.68-3.82,7.6,0.32,3.8,4.18,6.36,7.91,7.13,4.33,0.89,9.22,0,12.36-3.14s3.92-8.65,1.09-12.06c18.44,6.37,29.94,21.44,37.66,38.64,0.36,0.82.21,1.87,0.43,4.28-5.53-5.36-9.78-10.08-14.62-14.09-23.52-19.46-60.2-2.58-61.95,27.56-0.1,1.86-.55,3.71-1,6.57-3-2.05-5.36-3.19-7.08-4.94-10-10.23-31.65-9.33-42.61-.31-5,4.08-8.09,9.16-8.74,15.62a8.54,8.54,0,0,0,4.59,9c6.61,3.71,21.64-1.49,17.19-11-1.67-3.59-5.9-4.66-9.48-4.51,2.18-5,9.06-8,14.38-8.67,14.43-1.76,25.36,11.39,33.51,21.34-36.09,10.9-61.66,44.55-73,80.51-8.12,25.83-10.07,53.05-10.28,80-0.18,22.49,2,47-17.35,63-5.41,4.47-5.46,4.66-1.61,10.51,6.51,9.88,12.61,20.2,14.87,31.78,3.44,17.66,1.67,35.24,3.31,53.16a260,260,0,0,0,11,54.44c8.11,25.75,19.38,51.94,36.31,73.6,19.07,24.37,43.28,33.1,68.72,48.36,2.8,1.68,3.71,4.56,3.83,7.91a59.75,59.75,0,0,0,1.48,12.06c3.3,13.43,18,22.85,31.6,20.54,6.29-1.07,12.61-2,18.93-3a13.23,13.23,0,0,0,3.69,17.07c7.48,5.16,17.71-.16,22.18-6.94,1.2-1.82,2.22-3.74,3.41-5.54-2.64,4,19.07,14.64,21.87,15.19,9.84,1.94,19.31-2.09,27.39-7.41,2.07,5.17,3.69,9.72,5.69,14.09,4.59,10,12.92,11.67,20.64,3.69,5.05-5.22,9.24-11.29,13.57-16.68,0.86-1.07,13.15,5.21,15.25,5.88,16.23,5.2,24.69-4.43,37.3-12.65a15.89,15.89,0,0,0,14,14.8c14.17,1.22,17.55-14.74,21.25-24.9,0.78-.1,2-0.34,3.24-0.4,17.1-.87,27.3-9.69,30.32-26.51a13.22,13.22,0,0,1,6.83-9.65c27.73-15.16,46.23-31.67,60.72-60.42,11.27-22.38,12.08-50.65,18.79-74.76a511.34,511.34,0,0,1,17-50.68c5.63-14.28,10.61-31.33,25-39.19,1.83-1,3.08-3.06,4.61-4.64C6461.12,3421,6460.76,3420.19,6460.15,3419.84Zm-193-285.5c9.88-11.93,22.5-23.34,37-29.39,6.13-2.57,13-3.76,19.46-2,10.07,2.7,17.2,12.21,19.88,22.3,4.41,16.62.83,35-6.81,50.07-0.87,1.71-2.39,3.09-4.12,5.27-20.71-17-44.25-27.77-68.28-36.57C6262.74,3139.47,6265.08,3136.81,6267.12,3134.34Zm-94.71-18.47c1.35-5.38,2.58-10.58,3-11.67a41.26,41.26,0,0,1,17.9-21.56c23.47-13.54,46.79.15,54.55,24.26,3,9.22,7.22,18,6,28-0.15,1.23-.33,2.47-0.72,5.43-9.92-2.19-19-4.54-28.14-6.13s-18.64-2.74-28-3.57-18.6-1-28.73-1.53C6168.95,3129.17,6170.77,3122.4,6172.41,3115.87Zm-82.88-4.07c4.2-11.77,12.86-23.48,25.83-25.88,22.89-4.24,42.86,21.82,42.88,42.77a7.85,7.85,0,0,1-.78,2c-22.85,4.09-46.25,6-69.85,7.37C6087,3129.17,6086.44,3120.42,6089.53,3111.8Zm-77,12.81a33.07,33.07,0,0,1,10.12-11.82c11.82-8.89,24-8.31,34.68,1.85,8.46,8,17.37,16,19.81,29.11-9.42,3.6-19.58,6.7-29,11.31s-17.86,10.65-26.65,16c-9.9-3.89-11.53-20.31-12-29.6A33.39,33.39,0,0,1,6012.5,3124.6Zm26.21,521.94c-19.82-10.36-39.28-17.06-56-33.39s-29.36-36.95-37.85-58.74-13.22-44.59-16.3-67.59c-2.79-20.78-1.62-42.78-5.5-63.09-2.23-11.69-13.81-23.08-11.9-34.67,1.11-6.71,4.78-12.67,7.57-18.87,10.55-23.49,8.8-51.15,9.83-76.2,1.14-27.47,2.64-51.53,16.79-76.11a129.37,129.37,0,0,1,58.57-53l5.9,15.42q-10.13,10.07-20.25,20.15c-6,5.8-11.89,11.63-17.67,17.59a88.59,88.59,0,0,0-22,38c-4.4,15.48-9.55,30.85-11,46.91-1.64,18-5.1,35.83-4.75,54.12,0.85,43.84-4,85.77,6.75,129a281,281,0,0,0,25.38,65.68c10.67,19.78,23.67,42.74,43.11,54.95,6.49,4.07,13,8,19.47,12.19,5.95,3.82,11.79,7.8,18,11.91Zm64.18,23.34c-9,9-19.57,15.56-32.61,17.12a21.18,21.18,0,0,1-23-16.93c-2.37-12.81,1.19-24,8.42-33.83l55.46,22.07C6108.44,3662.21,6106.21,3666.58,6102.9,3669.89Zm63.75,23.76c-5.71,6.85-12.85,9.81-21.3,10.39-7.61.54-14.51-3.35-17-10.49-3.63-10.37-6.33-21-5.34-32.22,0.06-.7.6-1.36,1.35-3,18.84,4.57,38.07,7.41,59.38,3.73C6178.57,3674.36,6174.14,3684.66,6166.65,3693.65Zm87.13-2.3c-10.58,20.41-29.2,16.1-41.89,4.67-6.3-5.68-13.85-24.35-14.89-35,20.35-.65,39.59-5,59.59-10.79,1.24,4.85,3.29,9,3.12,13C6259.29,3672.85,6258.4,3682.44,6253.78,3691.35Zm-66.61-36.3a323.33,323.33,0,0,1-55.62-4.72c-41.73-6.88-83.17-22.34-115.2-50.83-59.8-53.21-74.13-131.34-75.18-208-0.68-49.82,3.14-110,26.06-155.21,2-4,4.22-7.76,6.54-11.45a287.42,287.42,0,0,1,35.37-36.5c6.42-5.56,13.55-11.54,21.15-17,47.69-28,108.94-37.52,161.21-34.38,35.86,2.15,71.5,12.1,102.69,30.06,33.52,19.31,57.79,48.23,75.66,82.33a235.33,235.33,0,0,1,26.33,96c1.87,34,2.88,68.93.32,103-3,39.38-10.51,87.69-35.66,119.24-25.44,31.91-55.37,56.61-93.54,72C6240.78,3650.33,6214.19,3654.81,6187.17,3655.05ZM6309,3678.44c-10.07,3.93-20.61-4.43-27.23-11.15-2.17-2.21-16.47-20.41-15.38-20.69,13.59-3.41,29.14-11.16,41.87-17.71,0.88,0.94,2.27,1.82,2.75,3.06,3.22,8.29,6.7,16.52,9.22,25C6323,3666.15,6317.92,3675,6309,3678.44Zm126.26-241.21c-4,4.88-7.44,10.11-9.28,16.53-5,17.28-9.43,34.71-14.3,52-5.83,20.73-11.87,41.41-18.29,62-10.46,33.42-24.43,63.15-58.88,76.43-6.58,2.53-9.22,1.15-11.73-5.44-1.45-3.82-2.6-7.76-4.2-11.51-1.53-3.59-.46-5.75,2.85-7.45,24.77-12.71,41.29-37.56,54.49-61.2,15.21-27.24,24.84-55,27.27-86.35,0.75-9.65.3-19.38,0.52-29.07,0.3-13.28.86-26.56,1-39.84,0.13-11-.08-21.94-0.26-32.91-0.24-13.78-.73-27.56-0.88-41.35-0.14-12.25-4.72-23.48-7.75-35.06-5.61-21.49-16.22-40.71-26.92-60-6.83-12.28-13-24.89-21.94-35.88-2.85-3.52-5.77-7-8.41-10.2l11-15.22c5.36,3.67,10.92,7.12,16.07,11.08,14,10.75,26,23.26,31.52,40.42a395.68,395.68,0,0,1,18.25,91.46c3.11,39.73,7.18,75.51,32.37,107.69C6443.61,3428.19,6439.17,3432.55,6435.3,3437.23Z" transform="translate(-5896.6 -3036.78)"/><path class="cls-3" d="M6382.62,3402.42c-2.77-40.94-9.11-84.58-23.87-123.09-6.15-16-10.29-32.34-20.06-47a133.59,133.59,0,0,0-36.47-36.28A159.55,159.55,0,0,0,6280.7,3184c-40.17-18.79-89.25-22.26-133-18.82-44.18,3.48-89.35,16.66-123.54,45.9-34.69,29.68-52.81,69.34-56.13,114.14-2.22,29.87-3.81,59.87-2.67,89.81q0.19,4.95.48,9.89c2.24,37.83,7.07,80.39,28.53,112.29a222.44,222.44,0,0,0,160.41,97.4c47.45,5.37,93.83,1.8,135.15-24.38C6357.62,3567.3,6387.82,3479.37,6382.62,3402.42Zm-278.2,213.45c-44.81-16.4-90.44-49.63-112-93.24-16.3-33-18.24-72.56-20.13-108.74q-0.31-5.85-.53-11.7c-1.25-32.07-2-64.47,4.67-96a174.85,174.85,0,0,1,21.37-54.92c9.69-15.85,19.59-26.17,35-37a243.35,243.35,0,0,1,58.17-29.85c74.5-26.65,171.85-24.33,228,38.63,17.12,19.19,28.32,43.07,35.67,67.71,8.2,27.46,12.94,56.88,17.66,84.94,5.07,30.22,6.54,62,.68,92.19-6.14,31.58-21.81,63.4-40.3,89.54C6280.62,3631,6186,3645.74,6104.42,3615.88Z" transform="translate(-5896.6 -3036.78)"/></svg>
