<svg id="Layer_1" data-name="Layer 1" xmlns="http://www.w3.org/2000/svg" viewBox="0 0 401.94 672.37" width="401.94" height="672.37"><title>Inside_frame_3</title><path d="M101.85,595.59C50.75,544,38.65,464.85,35.25,395.44c-2.07-42.34-2.38-85,2.75-127.1,5.42-44.47,16.62-92.87,39.58-131.88C96.83,103.77,132,82,169.09,77.23a183.7,183.7,0,0,1,118.72,26c37.3,23.05,59.57,61.63,65.51,104.94,4.12,30.05,4.32,61.88,4.12,92.13A597.2,597.2,0,0,1,349,397.95c-8.5,49.24-22.18,98-37.13,145.27-5.68,18-10.83,37.88-19.69,54.52-14.44,27.11-43.53,41-73.36,41.91a182.53,182.53,0,0,1-31.25-2c-32.11-4.64-62.85-18.85-85.78-42Z" fill="#4d4d4d"/></svg>
