<svg id="Layer_1" data-name="Layer 1" xmlns="http://www.w3.org/2000/svg" viewBox="0 0 401.94 672.37" width="401.94" height="672.37"><defs><style>.cls-1{fill:#d4145a;}.cls-2{fill:#4d4d4d;}</style></defs><title>Frame_3</title><path class="cls-1" d="M4029.57,3123.21c7.71,10,37.37,7.84,43.58-2.41a2.56,2.56,0,0,1,.52-0.42c8.16-7.29,13.37-16.59,17.88-26.35,2.49-5.4,2.05-10.79-2-15-4.75-4.9-11-9-17.81-7.5-7,1.54-14.06,4.84-16.74,12.88-0.49,1.47-1.1,2.89-1.68,4.42-4.29,1.59-6.69.64-9.19-2.58-5-6.38-11.08-11.68-18.84-14.55-9.91-3.66-19.65,3-17.82,12.77C4010.55,3101,4019.58,3110.3,4029.57,3123.21Z" transform="translate(-3853.03 -3058.2)"/><path class="cls-1" d="M3987.1,3135.33l33.09-8.44c-2.11-3.32-3.5-5.84-5.2-8.12-6.18-8.34-14.53-13.64-24.19-17.15-7.52-2.73-11.32-1.69-15.78,4-6.75,8.67-4.14,12.22.52,17.62C3979.32,3127.62,3983.52,3131.61,3987.1,3135.33Z" transform="translate(-3853.03 -3058.2)"/><path class="cls-1" d="M4078.08,3131c9.62,1.46,19,2.93,28.43,4.3,1.72,0.25,3.66.6,5.23,0.09,10.18-3.32,13.89-19.76,6.25-27.39a8.14,8.14,0,0,0-3.25-2.19c-7.65-2.15-15.13-2.45-20.88,4.24-5.35,6.22-10.34,12.75-15.48,19.16A8,8,0,0,0,4078.08,3131Z" transform="translate(-3853.03 -3058.2)"/><path class="cls-1" d="M3980.2,3138.24l-16.39-12.44c-4.38,2.71-11.71,4.74-15.64,11.48L3955,3154Z" transform="translate(-3853.03 -3058.2)"/><path class="cls-1" d="M3920.21,3197.48c4-7.67,5.48-9.28-3.6-16.7-1.64-1.34-3.49-2.43-5.22-3.62-9.52,9.53-13.8,21.13-18.76,33.46l17.25,8.29C3913.67,3211,3916.73,3204.14,3920.21,3197.48Z" transform="translate(-3853.03 -3058.2)"/><path class="cls-1" d="M4143.49,3152.59l11.78-11.07c-6.46-2.33-12-3.87-17.2-6.31-7.08-3.36-12.34-2.15-16.28,5.39Z" transform="translate(-3853.03 -3058.2)"/><path class="cls-1" d="M4195.06,3205.17a101.46,101.46,0,0,0,26.6-14c-2.47-4-4.26-7.6-6.75-10.66-2.77-3.4-6.21-6.25-9.3-9.39a4.45,4.45,0,0,0-6.07-.63c-6.73,4.21-13.4,8.52-20.25,12.9Z" transform="translate(-3853.03 -3058.2)"/><path class="cls-1" d="M4173.89,3177.87l21.83-14.44-33.15-17.71-10.74,11Z" transform="translate(-3853.03 -3058.2)"/><path class="cls-1" d="M3949.58,3159.05l-7.32-17.23c-12.54,5.79-19.47,16.75-26.15,28.61l12.46,11.25C3934.12,3172.7,3940.35,3165,3949.58,3159.05Z" transform="translate(-3853.03 -3058.2)"/><path class="cls-1" d="M3952.48,3661.65L3931.23,3676c9.95,7.76,19.22,14.25,29.84,19.31,3.62-6,9.91-9.74,10.15-17.43Z" transform="translate(-3853.03 -3058.2)"/><path class="cls-1" d="M3882.33,3527.88c5.84-.56,6.91-1.77,6.25-7.7-0.76-6.82-1.7-13.62-2.59-20.42-0.19-1.47-.53-2.93-0.91-5l-21,1.17c0.82,5.86,1.54,11.1,2.28,16.34,0.22,1.54.47,3.08,0.77,4.6C3869.5,3529,3869.66,3529.09,3882.33,3527.88Z" transform="translate(-3853.03 -3058.2)"/><path class="cls-1" d="M3900.94,3569.26l-19.8,4.18,10.36,26.92c5.9-2.19,13-.39,19-5.14Z" transform="translate(-3853.03 -3058.2)"/><path class="cls-1" d="M3945.4,3655.89l-14.58-19.05-23.3,9.69c3.6,8.71,9.74,14.83,15.23,21.68C3930.89,3664.58,3940.13,3664.27,3945.4,3655.89Z" transform="translate(-3853.03 -3058.2)"/><path class="cls-1" d="M3879,3487.49c5.36-.53,6-1.46,5.6-6.79-0.44-6-.76-12-1.19-18a27.6,27.6,0,0,0-.85-3.71c-5.64-.31-11.15-0.83-16.66-0.86-4.83,0-5.79,1.07-5.47,6.16,0.47,7.34,1.26,14.65,2,22.56,2.45,0.48,4.18,1.08,5.91,1.09A102.33,102.33,0,0,0,3879,3487.49Z" transform="translate(-3853.03 -3058.2)"/><path class="cls-1" d="M3917.2,3609.54c-1.29-2.69-3.32-4.24-6.35-3.91-5.64.61-11.26,1.38-17.38,2.15,2.54,11.34,5.2,21.55,10.59,32.27l23.33-9.53C3923.78,3623.1,3920.47,3616.33,3917.2,3609.54Z" transform="translate(-3853.03 -3058.2)"/><path class="cls-1" d="M3885.17,3565.2c4.2-.91,8.4-2,13.31-3.06-2.74-8.83-5.64-17.85-8.43-27.52h-18c0,3.87-.34,4.86.06,6.52,1.55,6.46,3.19,13.25,5.06,19.63C3878.55,3565.31,3880.66,3566.19,3885.17,3565.2Z" transform="translate(-3853.03 -3058.2)"/><path class="cls-1" d="M3887.23,3293.05l8.65-31.16c-5.56-5-12.07-6.52-20-6.25-3.28,11.68-8.19,22.72-8.05,35.07C3874.21,3293.81,3880.51,3293.67,3887.23,3293.05Z" transform="translate(-3853.03 -3058.2)"/><path class="cls-1" d="M3884.26,3324.87l2.1-22.66c-7.12-1.75-13.14-2.79-19.51-1.53-3,7.35-2.68,14.81-2.92,22.32A37.88,37.88,0,0,0,3884.26,3324.87Z" transform="translate(-3853.03 -3058.2)"/><path class="cls-1" d="M3880.68,3401.79a8.72,8.72,0,0,0,1-2.08c0-6.22.18-12.45-.15-18.65a5.37,5.37,0,0,0-3-3.92,77.9,77.9,0,0,0-13.59-2.8c-1.05-.12-3.28,1.91-3.42,3.14-1,8.16-.24,16.34-0.26,25.5Z" transform="translate(-3853.03 -3058.2)"/><path class="cls-1" d="M3861.81,3450.16c9.68,2.35,11.61,2.37,19.36.18v-39.61h-19.36v39.43Z" transform="translate(-3853.03 -3058.2)"/><path class="cls-1" d="M3867.14,3367.65c4.57,0.71,10.16,1,14,1.51v-35.4A115.8,115.8,0,0,0,3869,3332c-4.25-.23-4.87.57-5.25,4.88-0.72,8.19-1.23,16.4-1.66,24.62C3861.91,3365.65,3862.77,3367,3867.14,3367.65Z" transform="translate(-3853.03 -3058.2)"/><path class="cls-1" d="M3884.42,3248.46c3.31,1.3,6.64,2.55,10,3.68,3.94,1.33,5.27.79,6.52-3.22,2.24-7.2,4.19-14.48,6.51-22.56-4.56-2.16-8.85-4.42-13.32-6.23-2.75-1.11-5.33-.47-6.44,2.83-2.14,6.34-4.36,12.66-6.39,19C3880.35,3245,3881.44,3247.29,3884.42,3248.46Z" transform="translate(-3853.03 -3058.2)"/><path class="cls-1" d="M3967.58,3698.15c9.42,5.39,19.23,8.89,30.31,11.9l1.86-15.83-20.28-10.92Z" transform="translate(-3853.03 -3058.2)"/><path class="cls-1" d="M4207.26,3469.55c-2.56,10.93-7.54,20.69-8.62,32.11l30.55,3.22c2.21-10.11,3.88-20.38,5.36-30.69A64.19,64.19,0,0,0,4207.26,3469.55Z" transform="translate(-3853.03 -3058.2)"/><path class="cls-1" d="M4221.81,3511.71c-8.06-1.17-16.16-2-25-3.15l-6.1,27.66c9.56,3.05,19.15,2.92,28.19,4.5,2.49-8,4.83-15.33,7.09-22.73C4227.22,3513.94,4226.3,3512.37,4221.81,3511.71Z" transform="translate(-3853.03 -3058.2)"/><path class="cls-1" d="M4192.86,3544.12c-2.77-.14-4.54,1.19-5.22,4.08-1.88,8-3.91,15.91-6.06,24.6l27.73,6.59,8.09-31.43c-5.91-1.06-10.92-2-16-2.84A79.06,79.06,0,0,0,4192.86,3544.12Z" transform="translate(-3853.03 -3058.2)"/><path class="cls-1" d="M4220.45,3421.7c-5.9.32-5.91,0.78-6.75,6.81-0.77,5.51-1.74,11-2.49,16.49-0.71,5.19-1.25,10.4-1.85,15.41,8.87,4.22,17.71,3.69,26.4,5.07,2-14.62,3.79-28.62,3.24-43.43C4232.38,3421.9,4226.39,3421.38,4220.45,3421.7Z" transform="translate(-3853.03 -3058.2)"/><path class="cls-1" d="M4202.75,3585.22c-6.56-3.13-13.72-3.5-20.69-4.68-1.17-.2-3.43,1.34-3.91,2.57-2.77,7.22-5.17,14.59-7.78,22.16,6.58,4.83,14.36,7.08,27.78,8.27,2.63-7.05,5.36-14.27,8-21.52C4207.4,3588.62,4205.84,3586.7,4202.75,3585.22Z" transform="translate(-3853.03 -3058.2)"/><path class="cls-1" d="M4230.41,3352.92a35.48,35.48,0,0,0-9.06,2c-1.24.42-2.91,2-3,3.11-0.28,6.8-.14,13.62-0.14,20.6,8.52,2.74,16.87,1.11,25.56,1.54,1-9.29,2-17.76,3-27.3C4240.58,3352.83,4235.48,3352.6,4230.41,3352.92Z" transform="translate(-3853.03 -3058.2)"/><path class="cls-1" d="M4217.73,3388.37c-0.62,6.75-1.29,13.38-1.83,20-0.4,5,.48,6,5.36,6.06,6.23,0.09,12.47,0,19.31,0,3.81-8.6.65-17.57,2.8-27.36C4234.31,3388.29,4226.26,3384.75,4217.73,3388.37Z" transform="translate(-3853.03 -3058.2)"/><path class="cls-1" d="M4150.19,3660.86c-4.26,6.2-8.34,12.53-12.63,19l14.54,12.5c9.16-7.15,18.75-12.89,24.42-23.67-6.56-3.43-12.62-6.62-18.71-9.76C4154.77,3657.4,4152.07,3658.13,4150.19,3660.86Z" transform="translate(-3853.03 -3058.2)"/><path class="cls-1" d="M4166.63,3619.09c-2,6.37-4.39,12.62-6.62,18.91l-4.34,12.25c6.63,5.18,14.5,7.17,21.8,10.24,0.79,0.33,2.92-1,3.56-2,6.8-11.34,10.53-23.84,13.76-37.33-7.78-2-15.26-4-22.8-5.7C4169.23,3614.79,4167.54,3616.16,4166.63,3619.09Z" transform="translate(-3853.03 -3058.2)"/><path class="cls-1" d="M4092.26,3703.5c-13.79.67-27.59,1.23-41.19,1.83-3.24,4.74-4.91,9.38-3.48,14.65,11.72,3.56,45.74,3.45,53.82-.16,1.2-4.36-.66-8.22-2.31-12.1C4097.82,3704.69,4095.61,3703.33,4092.26,3703.5Z" transform="translate(-3853.03 -3058.2)"/><path class="cls-1" d="M4004.22,3711.63a152.41,152.41,0,0,0,35.62,7.27l2.85-15.15c-11.4-3.07-22.89-4.6-35-7.62Z" transform="translate(-3853.03 -3058.2)"/><path class="cls-1" d="M4131.56,3685.75L4105,3701.49l4.27,16.38c13.52-5.35,25.52-11.41,36.21-20.58C4141.77,3691.26,4136.11,3688.72,4131.56,3685.75Z" transform="translate(-3853.03 -3058.2)"/><path class="cls-1" d="M4218,3323.34v23h21.84c6,0,7.57-1.41,9.46-7.25,2.15-6.65.88-13.09-.17-19.51C4242.49,3318,4225.73,3320.2,4218,3323.34Z" transform="translate(-3853.03 -3058.2)"/><path class="cls-1" d="M4213.86,3284.54c0.84,8.07,1.63,15.56,2.38,23,0.66,6.5,1.08,7.37,7.79,6.68,8.31-.85,16.51-2.69,24.87-4.12,1.46-11.77,0-22.68-2.41-34.07C4235.69,3278.39,4224.57,3279.07,4213.86,3284.54Z" transform="translate(-3853.03 -3058.2)"/><path class="cls-1" d="M4220.36,3200.25c-6.47,3.9-12.92,7.84-19.17,11.64,1.18,6.8,2.11,13.12,3.41,19.36a82.49,82.49,0,0,0,3,9.08l31-11a19.5,19.5,0,0,0-.46-4.56c-1.4-4-3-7.87-4.62-11.75-1.45-3.48-2.81-7-4.58-10.33C4226.11,3197.41,4225.29,3197.28,4220.36,3200.25Z" transform="translate(-3853.03 -3058.2)"/><path class="cls-1" d="M4213,3276.22c9.64-2.42,18.66-4.63,27.65-7,6.16-1.61,7.35-4,5.58-10-1.12-3.82-2-7.7-3.06-11.55l-2.49-9.5c-11.75,1-22,4.42-30.88,12.28Z" transform="translate(-3853.03 -3058.2)"/><path class="cls-2" d="M4141.32,3129.22c-8-2.64-12.06-6.13-13-14.86-1.11-10.45-6.07-14.47-16.4-16.43l-8.49-1.62a8.17,8.17,0,0,1,.56-2.34,123.75,123.75,0,0,1,22.27-23.88,17.9,17.9,0,0,1,15.11-3.78c5.38,0.93,5.85,1.42,6.82,8-2.39-.12-4.81-0.6-7.11-0.27-5.18.74-6.8,2.56-7.17,7.16-0.43,5.39.77,7.48,5.58,9.32,4.5,1.72,9.12,1.53,12.56-1.79a17.18,17.18,0,0,0,3.4-20.88c-5.37-9.78-20-12.25-29.23-6.69-5.65,3.42-10.67,7.94-15.78,12.2-3.17,2.64-6,5.71-9.93,9.51-4.61-12.52-14.32-18.11-24.9-19.23-11.15-1.19-20.73,5.15-28,13.55-6.13-4.08-12-8.49-18.37-12.12a19.4,19.4,0,0,0-27.9,10.57c-0.56,1.59-1.15,3.17-2.09,5.75-4.95-9.29-12.34-14.53-20.58-18.55a28.58,28.58,0,0,0-10.28-2.64c-13-.93-22.58,6.68-23.61,18.38-0.39,4.4,4.37,11.57,8.32,12.54a11.07,11.07,0,0,0,12.56-6.61c2-4.76.34-8.37-4.59-10-1.78-.57-3.65-0.89-6.31-1.52,6.69-5.88,13.07-4,18.8-1.14,9.93,5,17.56,12.9,23.78,22.1,0.17,0.25-.1.79-0.25,1.72-1.87-.65-3.67-1.36-5.52-1.89-5.45-1.55-11.56-3.24-16.21.24-5.79,4.33-11.4,9.66-12.2,17.68-0.45,4.5-3.36,7.23-6.44,9.52-9.23,6.87-18.52,12.11-27,20.47a196.18,196.18,0,0,0-23.2,27.83,247.14,247.14,0,0,0-30.9,63c-12.5,37.78-16.6,76.35-20.07,115.64a662.7,662.7,0,0,0,.68,123.6,642.44,642.44,0,0,0,28.28,132.78c11.09,34.07,24.41,62.76,53.34,85.41a150.57,150.57,0,0,0,64.43,29.17c31.44,6,61,15.62,93.38,9.33,38.83-7.53,72.2-32.6,91-67.3,12.33-22.77,19.28-48.75,26.65-73.49q11.5-38.63,19.84-78.11c6.26-29.63,9.29-59.38,13.26-89.35,4.24-32,7.65-64.19,8.3-96.5,0.11-5.42.19-10.84,0.21-16.26,0.14-40.45-1.29-81.88-25.43-116.09C4208.36,3161.41,4175.83,3140.67,4141.32,3129.22Zm64.28,41.89c3.09,3.14,6.53,6,9.3,9.39,2.5,3.06,4.29,6.69,6.75,10.66a101.46,101.46,0,0,1-26.6,14l-15.78-21.79c6.85-4.38,13.52-8.69,20.25-12.9A4.45,4.45,0,0,1,4205.61,3171.11Zm-9.89-7.68-21.83,14.44-22.06-21.16,10.74-11Zm-57.64-28.22c5.15,2.45,10.73,4,17.2,6.31l-11.78,11.07-21.7-12C4125.74,3133.06,4131,3131.85,4138.08,3135.21Zm-44.22-25.15c5.75-6.69,13.23-6.39,20.88-4.24A8.14,8.14,0,0,1,4118,3108c7.64,7.64,3.93,24.07-6.25,27.39-1.57.51-3.51,0.16-5.23-.09-9.42-1.37-18.82-2.84-28.43-4.3a8,8,0,0,1,.3-1.8C4083.51,3122.82,4088.51,3116.29,4093.86,3110.07Zm-68.59-38.36c7.77,2.87,13.87,8.18,18.84,14.55,2.51,3.21,4.91,4.17,9.19,2.58,0.58-1.52,1.19-2.95,1.68-4.42,2.68-8,9.71-11.34,16.74-12.88,6.82-1.5,13.06,2.6,17.81,7.5,4.06,4.19,4.5,9.58,2,15-4.51,9.77-9.72,19.06-17.88,26.35a2.56,2.56,0,0,0-.52.42c-6.21,10.26-35.87,12.38-43.58,2.41-10-12.91-19-22.2-22.12-38.73C4005.62,3074.72,4015.36,3068,4025.27,3071.71ZM3975,3105.64c4.45-5.72,8.25-6.76,15.78-4,9.66,3.51,18,8.81,24.19,17.15,1.69,2.29,3.09,4.8,5.2,8.12l-33.09,8.44c-3.59-3.72-7.78-7.71-11.55-12.07C3970.89,3117.86,3968.28,3114.32,3975,3105.64Zm-11.23,20.16,16.39,12.44L3955,3154l-6.84-16.67C3952.09,3130.54,3959.42,3128.5,3963.8,3125.8Zm-21.54,16,7.32,17.23c-9.23,5.92-15.47,13.64-21,22.64l-12.46-11.25C3922.79,3158.58,3929.72,3147.61,3942.26,3141.83Zm-30.87,35.34c1.73,1.19,3.58,2.27,5.22,3.62,9.08,7.42,7.61,9,3.6,16.7-3.48,6.66-6.55,13.53-10.34,21.44l-17.25-8.29C3897.59,3198.3,3901.86,3186.7,3911.39,3177.17ZM3881.3,3242c2-6.37,4.25-12.69,6.39-19,1.11-3.3,3.69-3.93,6.44-2.83,4.48,1.8,8.77,4.06,13.32,6.23-2.31,8.08-4.27,15.36-6.51,22.56-1.25,4-2.58,4.55-6.52,3.22-3.37-1.13-6.7-2.38-10-3.68C3881.44,3247.29,3880.35,3245,3881.3,3242Zm-5.45,13.65c8-.27,14.48,1.24,20,6.25l-8.65,31.16c-6.72.61-13,.76-19.44-2.34C3867.66,3278.36,3872.57,3267.33,3875.85,3255.64Zm-9,45c6.37-1.26,12.39-.22,19.51,1.53l-2.1,22.66a37.88,37.88,0,0,1-20.34-1.87C3864.17,3315.49,3863.87,3308,3866.84,3300.68Zm-4.71,60.79c0.43-8.21.94-16.42,1.66-24.62,0.38-4.31,1-5.11,5.25-4.88a115.8,115.8,0,0,1,12.13,1.78v35.4c-3.87-.52-9.47-0.8-14-1.51C3862.77,3367,3861.91,3365.65,3862.13,3361.47Zm-0.64,16c0.14-1.22,2.36-3.26,3.42-3.14a77.9,77.9,0,0,1,13.59,2.8,5.37,5.37,0,0,1,3,3.92c0.34,6.2.17,12.43,0.15,18.65a8.72,8.72,0,0,1-1,2.08l-19.44,1.18C3861.25,3393.8,3860.53,3385.63,3861.49,3377.47Zm19.68,33.26v39.61c-7.74,2.2-9.68,2.17-19.36-.18v-39.43h19.36Zm-20.7,53.58c-0.32-5.08.64-6.18,5.47-6.16,5.51,0,11,.55,16.66.86a27.6,27.6,0,0,1,.85,3.71c0.43,6,.75,12,1.19,18,0.39,5.32-.24,6.25-5.6,6.79a102.33,102.33,0,0,1-10.69.47c-1.73,0-3.46-.61-5.91-1.09C3861.73,3479,3860.94,3471.65,3860.47,3464.31Zm6.62,52.55c-0.3-1.52-.56-3.06-0.77-4.6-0.75-5.24-1.47-10.48-2.28-16.34l21-1.17c0.38,2.08.72,3.54,0.91,5,0.89,6.8,1.83,13.6,2.59,20.42,0.66,5.93-.41,7.13-6.25,7.7C3869.66,3529.09,3869.5,3529,3867.09,3516.86Zm10.12,43.9c-1.87-6.37-3.52-13.17-5.06-19.63-0.4-1.65-.06-2.65-0.06-6.52h18c2.79,9.68,5.69,18.69,8.43,27.52-4.91,1.06-9.11,2.15-13.31,3.06C3880.66,3566.19,3878.55,3565.31,3877.21,3560.76Zm3.93,12.68,19.8-4.18,9.59,26c-6,4.75-13.12,3-19,5.14Zm12.32,34.35c6.11-.76,11.74-1.53,17.38-2.15,3-.33,5.06,1.21,6.35,3.91,3.27,6.79,6.58,13.56,10.19,21l-23.33,9.53C3898.67,3629.33,3896,3619.13,3893.47,3607.79Zm29.27,60.43c-5.48-6.85-11.62-13-15.23-21.68l23.3-9.69,14.58,19.05C3940.13,3664.27,3930.89,3664.58,3922.74,3668.21Zm8.49,7.77,21.24-14.33,18.75,16.21c-0.24,7.69-6.53,11.42-10.15,17.43C3950.46,3690.24,3941.18,3683.75,3931.23,3676Zm66.65,34.07c-11.07-3-20.89-6.51-30.31-11.9l11.89-14.85,20.28,10.92Zm-43-56.24c-51.1-51.58-63.2-130.74-66.6-200.15-2.07-42.34-2.38-85,2.75-127.1,5.42-44.47,16.62-92.87,39.58-131.88,19.25-32.69,54.39-54.49,91.51-59.23,41-5.23,83.62,4.29,118.72,26,37.3,23.05,59.57,61.63,65.51,104.94,4.12,30.05,4.32,61.88,4.12,92.13a597.21,597.21,0,0,1-8.41,97.65c-8.5,49.24-22.18,98-37.13,145.27-5.68,18-10.83,37.88-19.69,54.52-14.44,27.11-43.53,41-73.36,41.91a182.53,182.53,0,0,1-31.25-2C4008.52,3691.21,3977.78,3677,3954.85,3653.82Zm85,65.09a152.41,152.41,0,0,1-35.62-7.27l3.52-15.5c12.06,3,23.56,4.55,35,7.62Zm61.57,0.91c-8.08,3.6-42.1,3.71-53.82.16-1.43-5.27.23-9.91,3.48-14.65,13.6-.59,27.4-1.16,41.19-1.83,3.36-.16,5.57,1.2,6.85,4.21C4100.76,3711.6,4102.61,3715.45,4101.41,3719.81Zm7.84-1.94-4.27-16.38,26.59-15.74c4.55,3,10.21,5.51,13.9,11.55C4134.77,3706.47,4122.77,3712.53,4109.25,3717.87Zm42.86-25.49-14.54-12.5c4.3-6.5,8.38-12.82,12.63-19,1.87-2.73,4.58-3.46,7.63-1.9,6.09,3.13,12.15,6.33,18.71,9.76C4170.85,3679.5,4161.27,3685.23,4152.1,3692.38Zm28.91-33.94c-0.64,1.07-2.77,2.38-3.56,2-7.3-3.08-15.16-5.07-21.8-10.24L4160,3638c2.23-6.3,4.63-12.54,6.63-18.91,0.91-2.92,2.61-4.3,5.35-3.67,7.54,1.72,15,3.73,22.8,5.7C4191.55,3634.61,4187.82,3647.1,4181,3658.44Zm25.15-66.43c-2.64,7.25-5.37,14.47-8,21.52-13.43-1.18-21.2-3.44-27.78-8.27,2.61-7.57,5-14.94,7.78-22.16,0.48-1.23,2.74-2.76,3.91-2.57,7,1.18,14.13,1.55,20.69,4.68C4205.84,3586.7,4207.4,3588.62,4206.16,3592Zm3.14-12.62-27.73-6.59c2.15-8.69,4.18-16.63,6.06-24.6,0.68-2.89,2.45-4.22,5.22-4.08a79.06,79.06,0,0,1,8.6,1c5,0.82,10,1.78,16,2.84ZM4226,3518c-2.26,7.39-4.6,14.76-7.09,22.73-9-1.58-18.63-1.45-28.19-4.5l6.1-27.66c8.85,1.1,17,2,25,3.15C4226.3,3512.37,4227.22,3513.94,4226,3518Zm3.22-13.12-30.55-3.22c1.08-11.43,6.06-21.18,8.62-32.11a64.19,64.19,0,0,1,27.29,4.65C4233.08,3484.51,4231.41,3494.78,4229.19,3504.89Zm6.57-39.4c-8.7-1.38-17.54-.85-26.4-5.07,0.59-5,1.13-10.22,1.85-15.41,0.75-5.51,1.72-11,2.49-16.49,0.84-6,.85-6.49,6.75-6.81s11.93,0.2,18.55.36C4239.55,3436.87,4237.74,3450.87,4235.76,3465.49Zm4.8-51c-6.84,0-13.08.07-19.31,0-4.88-.07-5.76-1.07-5.36-6.06,0.54-6.64,1.21-13.27,1.83-20,8.53-3.63,16.57-.09,25.64-1.25C4241.21,3396.91,4244.37,3405.88,4240.57,3414.48Zm3.25-34.35c-8.69-.43-17,1.2-25.56-1.54,0-7-.14-13.79.14-20.6,0-1.11,1.72-2.69,3-3.11a35.48,35.48,0,0,1,9.06-2c5.07-.31,10.17-0.08,16.4-0.08C4245.77,3362.37,4244.84,3370.84,4243.82,3380.13Zm5.47-41c-1.89,5.84-3.49,7.24-9.46,7.25H4218v-23c7.74-3.14,24.5-5.35,31.13-3.76C4250.16,3326,4251.43,3332.44,4249.28,3339.08Zm-0.39-28.94c-8.35,1.43-16.56,3.27-24.87,4.12-6.7.69-7.13-.18-7.79-6.68-0.76-7.49-1.55-15-2.38-23,10.72-5.47,21.83-6.15,32.63-8.46C4248.87,3287.47,4250.36,3298.37,4248.9,3310.14Zm-5.77-62.51c1,3.85,1.94,7.73,3.06,11.55,1.78,6.08.59,8.44-5.58,10-9,2.34-18,4.55-27.65,7l-3.2-25.8c8.9-7.86,19.13-11.26,30.88-12.28Zm-5-22.88a19.5,19.5,0,0,1,.46,4.56l-31,11a82.49,82.49,0,0,1-3-9.08c-1.3-6.24-2.24-12.56-3.41-19.36,6.25-3.8,12.7-7.74,19.17-11.64,4.93-3,5.76-2.84,8.58,2.42,1.77,3.31,3.13,6.85,4.58,10.33C4235.13,3216.89,4236.74,3220.79,4238.14,3224.75Z" transform="translate(-3853.03 -3058.2)"/></svg>
