<svg id="Layer_1" data-name="Layer 1" xmlns="http://www.w3.org/2000/svg" viewBox="0 0 565.52 690.25" width="565.52" height="690.25"><title>Inside_frame_4</title><path d="M207.82,579.09c-44.81-16.4-90.44-49.63-112-93.24-16.3-33-18.24-72.56-20.13-108.74q-0.31-5.85-.53-11.7c-1.25-32.07-2-64.47,4.67-96a174.85,174.85,0,0,1,21.37-54.92c9.69-15.85,19.59-26.17,35-37a243.34,243.34,0,0,1,58.17-29.85c74.5-26.65,171.85-24.33,228,38.63C439.49,205.46,450.69,229.34,458,254c8.2,27.46,12.94,56.88,17.66,84.94,5.07,30.22,6.54,62,.68,92.19-6.14,31.58-21.81,63.4-40.3,89.54C384,594.22,289.4,609,207.82,579.1h0Z" fill="#443b35"/></svg>
