<svg id="Layer_1" data-name="Layer 1" xmlns="http://www.w3.org/2000/svg" viewBox="0 0 503.58 610.93" width="503.58" height="610.93"><title>Inside_frame_1</title><path d="M244.66,549.85q-39.16-1.89-78.3-4c-23.5-1.29-48.08-5.25-71.34-4.88-7.39.12-8.07-.3-8.36-7.73-4.12-105-12-209.89-14.89-315q-2-71.89,1-143.79c0.16-3.89,2.07-5.7,5.81-5.81,4.68-.13,9.37-0.38,14-0.25,57.6,1.68,115.57,4.5,173.32,7.4l82.74,4.16C373,81.17,399,80.08,423,84.66c0,5.25.42,10.16-.06,15-2.41,23.81-2.35,48.85-1.13,72.67l10.88,212.74,5.44,106.37c0.88,17.1,3.93,35.59,2.62,52.65-0.37,4.86-1.06,7.34-3.1,8.8-1.48,1.05-3.66,1.57-7,2.06-7.25,1.08-14.79,1.27-22.1,1.72-54.3,0-109.4-4.16-163.86-6.78Z" fill="#4d4d4d"/></svg>
