<svg id="Layer_1" data-name="Layer 1" xmlns="http://www.w3.org/2000/svg" viewBox="0 0 580.52 687.84" width="580.52" height="687.84"><defs><style>.cls-1{fill:#b0b52c;}.cls-2{fill:#333;}</style></defs><title>Frame_6</title><path class="cls-1" d="M5642.14,3323.43c1.46,1.93,16.86-23,17.86-26.38,3.22-10.79,1.4-24.34-5.82-33.25-8.54-10.54-20.44-8.22-32.19-4.23-1.62-2.66-1-6.16.41-8.92s3.61-5.07,5.25-7.72a23.88,23.88,0,0,0-.57-25.48c-7.75-11.31-24.55-12.32-36.68-9-3.39.92-6.74,2-11.13,3.28,0-2.76-.59-4.81.12-6.18a51.82,51.82,0,0,1,6-9c8.64-10.4,9.06-30.1.22-40.67s-21.27-9.72-33-5.41c-4.56,1.68-8.81,4.15-15.5,2.89,0.81-3.28,1.08-5.86,2.09-8.13,3.87-8.75,3.8-18,3.61-27.24-0.14-7.34-3.1-13.8-10.5-16.4-10-3.51-19.71-2.29-27.76,5-4.33,3.95-7.86,8.75-12.39,13.89,4.41,5.87,8.65,11.25,12.6,16.82C5549.4,3200.12,5596.2,3261.51,5642.14,3323.43Z" transform="translate(-5151.68 -3037.99)"/><path class="cls-1" d="M5422.5,3118.42c-5.5-11.35-14.27-13.63-25.05-13.45-16.39.27-24.35,4.91-29.9,20.29-2.2,6.09-3.17,12.63-4.89,19.74-6.41,1.4-13,3.4-19.74,4.2-17.38,2.07-27.08,12.53-31.47,28.45-2.42,8.76-3.52,17.87-5.35,27.5-3.84,2.56-8.14,3.21-13.94,1.56-19.51-5.57-39.48,12-38,32.66,1,13,1,13-12.08,14.8-0.66.09-1.33,0-2,.15-18.07,3-25.62,12.56-24.49,30.93a42.59,42.59,0,0,0,1,8.83c2.8,10,4.53,20.52,11.75,27.56C5295.48,3256.86,5364.8,3191.88,5422.5,3118.42Z" transform="translate(-5151.68 -3037.99)"/><path class="cls-1" d="M5224.26,3411.86c-15.83,16-22.8,34-19,55.32,1.59,8.86,6.31,15.86,16.18,17.87,5.16,1.05,10.23,2.57,15.33,3.91,5.89,1.55,7.41,4,4.11,9.08-6.39,9.92-5.5,20.24-2.41,30.5,4.8,16,11.5,20.19,25.3,19.8,3.29-.09,6.57-0.44,9.85-0.77,7.44-.75,9.14,1.26,6.78,8.11-5,14.42-1.66,27.22,7.78,38.72a18.47,18.47,0,0,0,16.71,6.85c5.57-.5,11.11-1.34,16.62-2.24,6.58-1.07,7.57-.35,6.36,6.26a36.09,36.09,0,0,0,5.86,27.34,18.17,18.17,0,0,0,9,6.83c18,5.45,31.53-4,45.93-13.93-19.77-28.86-44.14-55-65.66-82.61C5315.21,3532.81,5223.07,3413.06,5224.26,3411.86Z" transform="translate(-5151.68 -3037.99)"/><path class="cls-1" d="M5649.14,3450.43c-21,24.15-43.06,49.39-64.53,73.9-21.28,24.29-41.49,50.88-65.05,73-9.47,8.89-16.39,20.49-24.44,30.89-4.87,6.3-4.52,10,2.25,14.73a152,152,0,0,0,15.37,8.9c15.05,8,31,1.93,36.46-14.35,1.76-5.21,2.22-10.94,2.71-16.48,0.39-4.37-2.6-9.45,2.35-12.73,4.63-3.06,8.92.38,13.16,1.68,19,5.81,34.36-2.2,39.7-21,1.85-6.51,2.16-13-2-19-2-2.92-2.76-6.17,0-9.05s6.16-3.43,9.95-1.82a45.36,45.36,0,0,0,7.44,2.52c5,1.17,9.5-.06,14.14-2.57,14.09-7.62,18.59-26.53,9.91-38.18-1.86-2.49-2.92-5.16-.74-8.14s5-3.41,8.66-2.91c3.31,0.44,7.94.51,10.05-1.4,6.67-6,11.6-13.22,10.47-23.25-1.78-15.66-8.47-28.77-20-41.6C5652.52,3446.41,5650.86,3448.45,5649.14,3450.43Z" transform="translate(-5151.68 -3037.99)"/><path class="cls-2" d="M5722.15,3347a16.28,16.28,0,0,0-3.71,3.21c-5.92,6.65-11.77,13.36-17.65,20-3.21,3.64-6.45,7.27-9.95,11.22-17.71-13.19-26.42-32.66-40.77-47.45,4.66-7,9.06-13.11,13-19.53,10.23-16.63,14.1-33.9,5.44-52.65-4.28-9.27-10-16.1-20.9-17-2.15-.18-4.22-1.38-6.46-2.16,0.36-2.83.58-5.09,1-7.33,3.39-20.4-6-31.75-29-38.41-4.28-1.24-8.75-1.85-13.63-2.85,5.51-10.73,2.72-20.7,1.25-30.74-2.73-18.63-16.88-29.58-35-26.21-3.68.68-7.58,0.1-11.91,0.1,0-7.67.09-14.51,0-21.34a26.4,26.4,0,0,0-19.62-25.34c-14.85-4.07-27.17.4-37.84,10.78-3.2,3.11-6.37,6.25-10.14,10-6.12-8.19-11.5-15.24-16.71-22.4-1.92-2.63-3.45-5.54-5.29-8.53,2.95-4,5.52-7.79,8.45-11.32,6.33-7.59,13-14.9,19.15-22.64,1.26-1.59.73-4.6,1-6.95a43.54,43.54,0,0,0-7.16,0c-1.1.16-2.12,1.51-3,2.48-4.57,5.19-9.16,10.36-13.58,15.67-3.84,4.61-7.47,9.4-11.33,14.28-8.49-10.48-16.21-19.85-23.74-29.38-2.39-3-4.67-5.53-9.25-4.07-3,4.22-2.79,8.55.28,12.65s6.56,8.25,10,12.24c4.09,4.74,8.59,9.14,12.36,14.11,1.32,1.75,2.21,5.51,1.23,7-5.1,7.95-10.22,16-17.75,22.94-2.87-2.16-5.23-3.85-7.48-5.66-9.47-7.62-34.86-9.93-45.2-3.48-11.25,7-19.65,16.84-23.08,29.75-3.65,13.73-22.81,10.94-33.25,18.46a57.45,57.45,0,0,0-23.19,39.32,39.32,39.32,0,0,1-1.88,6.92c-9.9,2.47-18.51,4.33-26.94,6.82a32.15,32.15,0,0,0-20.36,17.7c-3.63,7.86-5.3,16.63-7.76,24.74-5.1,2.29-10.53,4.54-15.8,7.12-18.95,9.3-25.06,23.69-20.71,44.18,2.92,13.75,8.12,27,12.76,42l-27,27L5157.75,3323c-6.15,3.75-7.55,6.2-4.54,11.41a55.05,55.05,0,0,0,10,12.05,250.82,250.82,0,0,1,21.67,23c-2,2.89-3.36,5.08-4.9,7.16-6.26,8.47-12.61,16.89-18.85,25.39-1.88,2.56-4.61,5.07-1.79,8.8,5,0.75,8.77-.74,11.5-5.35,2.85-4.81,6.15-9.38,9.43-13.92s6.66-8.78,11.07-14.56c7.54,10.71,18.34,16.47,24.22,27.31-8.95,11.22-15.66,23.06-19.79,36.55-4.09,13.33-5.23,25.73,2,38.59,4.53,8.09,10,13.53,19.13,15.55,3.63,0.81,7,2.65,10.56,4-1.23,5.32-2.76,9.41-3,13.58-0.82,12.16,3.44,23.14,8.69,33.83,4.25,8.66,11.93,11.88,20.8,13,3.51,0.43,7.12.07,11.23,0.07,0.42,5.72.83,10.93,1.17,16.13,0.79,12.07,6.23,21.9,14.62,30.3,3.38,3.38,7.21,5.5,12.24,5.53,6.56,0,13.12.57,19.73,0.89,2.23,7.24,3.55,13.75,6.21,19.65,4.09,9.08,9.1,18.15,20.16,19.94a53,53,0,0,0,18.49-.3A77.61,77.61,0,0,0,5389,3637.5c6.11-4.55,7.93-4.07,11.77.44q16.65,19.55,33.37,39.06c5,5.81,5,6.31-.29,12.25-6.36,7.13-12.64,14.35-19.05,21.44-3.32,3.67-4.9,7,.47,10.48,14.63-5.2,18.48-21.71,31.17-29.76,8.68,8.51,17.38,16.41,23.39,26.84,5.72,9.94,11.3,10.06,16.72.6a4.32,4.32,0,0,0,0-1.87c-7.22-8-14.58-16-21.68-24.17-10.75-12.38-10.93-12.62-1.53-25.43,5.56-7.59,10.76-15.7,18.87-21.31,3.1,1.73,5.7,3.13,8.25,4.6,6.54,3.78,12.84,8.06,19.64,11.31,19.84,9.49,41.66-4.1,47.42-17,3.45-7.72,6-15.83,9.32-24.58,36.55,4.81,51.94-16,56.44-49.11,13.89,0.32,23.4-6.2,31.72-16,8.76-10.36,9.61-21.93,7-34.41,2.4-1.32,4.12-2.21,5.79-3.19,12.8-7.49,20.71-25.85,18.74-40.64-1.51-11.32-7.69-20.25-13-29.64-8.46-15-8.73-14.9,1.23-28.23,4.23-5.67,8.67-11.19,13.58-17.51l29.73,36.67c6.83-7.58,7.23-10.21,2.64-16.25-5.78-7.62-11.93-15-17.63-22.63-7.1-9.57-7-9.69.78-18.06,8.3-8.93,16.66-17.81,25-26.71,2-2.14,4.92-4.34,2.26-7.53S5725.11,3345.26,5722.15,3347Zm-217.59-240.45c8.05-7.34,17.75-8.56,27.76-5,7.4,2.6,10.35,9.06,10.5,16.4,0.18,9.2.26,18.49-3.61,27.24-1,2.26-1.27,4.85-2.09,8.13,6.7,1.25,10.94-1.22,15.5-2.89,11.75-4.31,24.22-5.13,33,5.41s8.42,30.27-.22,40.67a51.82,51.82,0,0,0-6,9c-0.71,1.37-.12,3.42-0.12,6.18,4.39-1.3,7.74-2.36,11.13-3.28,12.13-3.27,28.92-2.26,36.68,9a23.88,23.88,0,0,1,.57,25.48c-1.65,2.65-3.81,5-5.25,7.72s-2,6.27-.41,8.92c11.75-4,23.66-6.31,32.19,4.23,7.23,8.91,9,22.46,5.82,33.25-1,3.35-16.4,28.31-17.86,26.38-45.93-61.93-92.74-123.31-137.37-186.17-4-5.57-8.19-11-12.6-16.82C5496.7,3115.31,5500.23,3110.5,5504.56,3106.56Zm-287.9,187.52a42.59,42.59,0,0,1-1-8.83c-1.13-18.37,6.42-27.89,24.49-30.93,0.65-.11,1.32-0.06,2-0.15,13-1.81,13-1.81,12.08-14.8-1.52-20.65,18.44-38.23,38-32.66,5.8,1.66,10.1,1,13.94-1.56,1.83-9.63,2.93-18.75,5.35-27.5,4.39-15.92,14.09-26.38,31.47-28.45,6.73-.8,13.33-2.8,19.74-4.2,1.72-7.11,2.69-13.64,4.89-19.74,5.54-15.38,13.51-20,29.9-20.29,10.78-.18,19.55,2.1,25.05,13.45-57.7,73.47-127,138.44-194.09,203.22C5221.19,3314.6,5219.46,3304.06,5216.66,3294.08Zm126.13,345.37a18.17,18.17,0,0,1-9-6.83,36.09,36.09,0,0,1-5.86-27.34c1.22-6.62.22-7.34-6.36-6.26-5.51.9-11.05,1.74-16.62,2.24a18.47,18.47,0,0,1-16.71-6.85c-9.43-11.5-12.74-24.3-7.78-38.72,2.36-6.86.67-8.86-6.78-8.11-3.28.33-6.56,0.68-9.85,0.77-13.8.38-20.5-3.85-25.3-19.8-3.09-10.27-4-20.59,2.41-30.5,3.3-5.13,1.79-7.53-4.11-9.08-5.1-1.34-10.17-2.85-15.33-3.91-9.86-2-14.58-9-16.18-17.87-3.84-21.36,3.12-39.34,19-55.32-1.19,1.2,91,120.95,98.8,131,21.52,27.66,45.89,53.75,65.66,82.61C5374.32,3635.45,5360.78,3644.9,5342.79,3639.45ZM5675,3485.13c1.14,10-3.79,17.23-10.47,23.25-2.11,1.91-6.75,1.84-10.05,1.4-3.69-.49-6.41-0.16-8.66,2.91s-1.13,5.65.74,8.14c8.69,11.65,4.18,30.55-9.91,38.18-4.64,2.51-9.1,3.74-14.14,2.57a45.36,45.36,0,0,1-7.44-2.52c-3.78-1.62-7.18-1.12-9.95,1.82s-2,6.13,0,9.05c4.12,6,3.81,12.49,2,19-5.34,18.83-20.75,26.85-39.7,21-4.24-1.3-8.53-4.75-13.16-1.68-4.95,3.28-2,8.36-2.35,12.73-0.49,5.54-1,11.27-2.71,16.48-5.5,16.28-21.4,22.37-36.46,14.35a152,152,0,0,1-15.37-8.9c-6.77-4.71-7.12-8.42-2.25-14.73,8-10.41,15-22,24.44-30.89,23.56-22.12,43.77-48.71,65.05-73,21.47-24.51,43.54-49.75,64.53-73.9,1.72-2,3.39-4,5.8-6.9C5666.52,3456.37,5673.21,3469.48,5675,3485.13Zm2.68-87c-71,92.25-152.68,175.6-224.7,267.1-1.63,2.08-3,4.37-5,7.35-4.08-3.22-6.9-4.83-8.93-7.14-44-48.84-84.56-101.49-125.06-153.23-34.53-44.11-65.24-96.57-107.18-133.91a42.94,42.94,0,0,1-4.71-5c-2.43-3-2.42-5.92.4-8.8,3.69-3.77,7.26-7.66,10.87-11.51,40.92-43.59,84.64-84.37,125.64-128,40.68-43.3,79.73-88.08,118.13-133.4,72.1,101.9,148.14,201,224.59,299.69A62.1,62.1,0,0,1,5677.67,3398.16Z" transform="translate(-5151.68 -3037.99)"/></svg>
