<svg id="Layer_1" data-name="Layer 1" xmlns="http://www.w3.org/2000/svg" viewBox="0 0 580.52 687.84" width="580.52" height="687.84"><title>Inside_frame_6</title><path d="M526,360.14c-71,92.25-152.68,175.6-224.7,267.1-1.63,2.08-3,4.37-5,7.35-4.08-3.22-6.9-4.83-8.93-7.14-44-48.84-84.56-101.49-125.06-153.23-34.53-44.11-65.24-96.57-107.18-133.91a42.94,42.94,0,0,1-4.71-5c-2.43-3-2.42-5.92.4-8.8,3.69-3.77,7.26-7.66,10.87-11.51,40.92-43.59,84.64-84.37,125.64-128C228,143.7,267.06,98.92,305.46,53.6,377.56,155.5,453.6,254.6,530,353.29a62.07,62.07,0,0,1-4.06,6.88v0Z" fill="#333"/></svg>
