<svg id="Layer_1" data-name="Layer 1" xmlns="http://www.w3.org/2000/svg" viewBox="0 0 503.58 610.93" width="503.58" height="610.93"><defs><style>.cls-1{fill:#ffaf0f;}.cls-2{fill:#4d4d4d;}</style></defs><title>Frame_1</title><path class="cls-1" d="M3539.51,3101.75c-0.57-2.52-2-4.83-3.1-7.28-10.76,5.39-15.67,20.15-16.88,48.82h21.65C3540.95,3129.1,3542.56,3115.34,3539.51,3101.75Z" transform="translate(-3156.53 -3070.32)"/><path class="cls-1" d="M3593.77,3235.6a48.67,48.67,0,0,0-5.62.73v22.14c4.42,0.5,7.81,1.48,11.06,1.13a278.56,278.56,0,0,0,28.39-4.12c3.78-.81,7.47-3.52,10.46-6.19,4-3.59,3.53-7.7-1.46-9.83a48.62,48.62,0,0,0-15.65-3.71C3611.93,3235.16,3602.83,3235.54,3593.77,3235.6Z" transform="translate(-3156.53 -3070.32)"/><path class="cls-1" d="M3591.27,3270.8a3.08,3.08,0,0,0-1.16.93v21.74c11.79-1.46,22.29-2.67,32.76-4.12,4.36-.6,8.65-1.65,13-2.6,3.62-.8,6.08-2.84,6.41-6.79,0.37-4.43-1.35-7.47-5.63-8.89-3.41-1.13-7-2.41-10.53-2.31C3614.46,3269.11,3602.87,3270,3591.27,3270.8Z" transform="translate(-3156.53 -3070.32)"/><path class="cls-1" d="M3609.92,3303.43c-6.35.43-12.7,0.9-19.31,1.36V3323c11.69,1.83,35.55-.08,45.05-3.44a15.33,15.33,0,0,0,1.47-.47c3.94-1.84,4.72-4.08,2.85-8.15-2.5-5.45-8.8-8.9-15.39-8.45C3619.71,3302.82,3614.82,3303.1,3609.92,3303.43Z" transform="translate(-3156.53 -3070.32)"/><path class="cls-1" d="M3556.77,3144.23c6.73,0.48,13.5,1.49,20.19,1.16,5.11-.24,9,1,12.26,4-0.59,14.49-3.39,28.46-1.65,42.73h20.76c0.33-24.48.34-48.46-1.06-72.94-18.35-1.31-35.37-2.55-52.4-3.68-1.17-.07-2.4.75-4.29,1.39,0,7.23-.07,14.45,0,21.67C3550.67,3142.52,3553.28,3144,3556.77,3144.23Z" transform="translate(-3156.53 -3070.32)"/><path class="cls-1" d="M3594.1,3334.37a9.47,9.47,0,0,0-2.43,1.17V3352c3.71,0.52,6.75,1.51,9.68,1.27,9-.73,18-1.65,26.91-3.07,4.5-.72,8.89-2.47,13.18-4.13,2.81-1.09,3.37-3.81,2.8-6.54-1-4.87-6.62-9.67-11.74-9.24C3619.69,3331.4,3606.9,3332.95,3594.1,3334.37Z" transform="translate(-3156.53 -3070.32)"/><path class="cls-1" d="M3586.44,3205.4c0,6.41,0,12.82,0,20.07,6.38,0.43,11.89,1.83,17,.92,10.38-1.85,20.59-4.77,30.73-7.7a8.77,8.77,0,0,0,5.08-4.91c1-3,.22-6.4-3-8-3.42-1.72-7-4-10.66-4.22-11.35-.71-22.75-0.58-34.12-0.71C3588.43,3200.77,3586.44,3202.09,3586.44,3205.4Z" transform="translate(-3156.53 -3070.32)"/><path class="cls-1" d="M3605.43,3362.22c-3.8-.3-7.66.29-13,0.54,0.69,9.17,1.28,17,1.94,25.69,11.16-.59,21.27-0.64,31.24-1.85a24.09,24.09,0,0,0,15.4-8.34c1.05-1.24,1.67-4.59.9-5.33-3.09-3-6.48-6.75-10.34-7.61C3623.08,3363.42,3614.21,3362.93,3605.43,3362.22Z" transform="translate(-3156.53 -3070.32)"/><path class="cls-1" d="M3642.52,3516.38c-2.1-.67-4.6-0.05-6.93,0-7.73,0-15.47.13-23.2,0a90,90,0,0,1-9.24-1.12V3535c3.85-.51,6.87-0.93,9.9-1.31,5.14-.65,10.3-1.93,15.41-1.75,6.48,0.23,11.67-2.25,16.44-5.88,1.52-1.15,3-4.05,2.53-5.66S3644.47,3517,3642.52,3516.38Z" transform="translate(-3156.53 -3070.32)"/><path class="cls-1" d="M3631.14,3455.49c-9.77.23-19.51,1.38-30.43,2.22,0,4.36,0,7.71,0,11.06,0,3.9,1.91,5.72,5.8,5.47,9.29-.58,18.58-1.24,27.88-1.71,6-.3,10.15-3.17,13.08-8.16C3641.81,3457.66,3638.5,3455.32,3631.14,3455.49Z" transform="translate(-3156.53 -3070.32)"/><path class="cls-1" d="M3608.66,3484.2c-6.42.49-7,1.38-7.3,7.68-0.21,4.07.3,8.17,0.51,12.86,3.69,0.65,6.21,1.43,8.74,1.48a119.8,119.8,0,0,0,16.26-.36c6.08-.71,12.48-0.31,17.89-4.25,4.85-3.52,5.62-7.85.88-11.34-3.84-2.82-8.47-5.66-13-6.19C3624.75,3483.14,3616.63,3483.59,3608.66,3484.2Z" transform="translate(-3156.53 -3070.32)"/><path class="cls-1" d="M3644.43,3427.23c-4.47-3.58-9.79-3-14.75-4-10.67-2.31-20.94.68-31.18,2-1.16,12.24-1,13.59,2.53,22.16,12.56,0.58,25.1-1,37.57-3.27,2.15-.38,4.23-1.87,6-3.24C3650.67,3436.33,3650.34,3432,3644.43,3427.23Z" transform="translate(-3156.53 -3070.32)"/><path class="cls-1" d="M3630.91,3395.13c-2.67.8-5.67,0.47-8.51,0.7-9,.73-18,1.49-27.65,2.29l1.8,16.22a29.11,29.11,0,0,0,4.64.53c12.14-.9,24.28-1.87,36.42-2.82a11.6,11.6,0,0,0,1.53-.3c7.25-1.61,9-3.52,10.37-11.74C3644,3396.06,3638.33,3392.89,3630.91,3395.13Z" transform="translate(-3156.53 -3070.32)"/><path class="cls-1" d="M3328.46,3623.19c-6.58-.46-8,0.35-8,7.09a146.5,146.5,0,0,0,1.91,23.95c0.94,5.46,3.11,10.91,7.3,15,11.62-4.17,19.39-27.75,14.7-44.95C3339.21,3623.91,3333.83,3623.56,3328.46,3623.19Z" transform="translate(-3156.53 -3070.32)"/><path class="cls-1" d="M3509.54,3142.2c0.65-9.81,2-19.1,1.69-28.35-0.29-9.57-4.44-17.53-15.4-21.85-9.93,15.76-8.82,32.89-9.56,50.71C3494.25,3142.07,3501.56,3143.83,3509.54,3142.2Z" transform="translate(-3156.53 -3070.32)"/><path class="cls-1" d="M3606.1,3580.9c0,1.91,0,3.44,0,5-0.23,8-.13,16.05-0.85,24-0.63,7-1.65,13.91,1.56,20.59-4.85,4.8-10.51,2.69-15.74,2.81-6.09.14-12.18,0.12-18,.17-2.48,9.18-2.56,13.23-.43,19.77,10.33,0.26,20.91.68,31.5,0.76,10.74,0.08,21.49-.18,32-0.29,3.69-18.37,4.66-70.05,1.39-78C3627.34,3578.07,3616,3574.29,3606.1,3580.9Z" transform="translate(-3156.53 -3070.32)"/><path class="cls-1" d="M3641.47,3540.09c-12.3,1.34-24.56,3-36.2,4.44-3.35,8.38-1.39,15.28.71,23.6,7.6-.88,14.72-0.85,21.31-2.69,7.3-2,15.06-3.6,20.73-9.69,3-3.19,3.06-6.29,1.72-10C3648.33,3541.92,3645.53,3539.66,3641.47,3540.09Z" transform="translate(-3156.53 -3070.32)"/><path class="cls-1" d="M3176.89,3275.47a12.92,12.92,0,0,0,3.39,1.87c12.34,4.27,25.22,4.65,38.71,5.93,0-7.54.12-14.46,0-21.38-0.09-3.69-2.67-5.46-6.06-6-4.6-.71-9.21-1.53-13.84-1.79a130.45,130.45,0,0,0-17,0c-6.27.47-9.31,4.4-11.19,11.08C3169.22,3271.15,3173.46,3272.92,3176.89,3275.47Z" transform="translate(-3156.53 -3070.32)"/><path class="cls-1" d="M3203.44,3312.52c5.77,1.55,12.05,1.17,19.15,1.75l-2.06-20c-7.24-.54-13.94-0.75-20.55-1.62-6.94-.91-13.8-2.44-20.69-3.69a4.15,4.15,0,0,0-.78,0c-5,.08-7.79,2.08-8.74,6.1-1,4.34,1.74,6.41,5,7.62C3184.25,3306.19,3193.7,3309.91,3203.44,3312.52Z" transform="translate(-3156.53 -3070.32)"/><path class="cls-1" d="M3212.38,3244.65c1.58,0.31,3.33-.2,4.62-0.3v-23.6c-14.52-3.24-28.13-3.3-41.79-2a11,11,0,0,0-4.88,2.11c-4,2.84-4.32,5.25-1.15,8.94a26.53,26.53,0,0,0,14.39,8.68C3193.13,3240.74,3202.75,3242.73,3212.38,3244.65Z" transform="translate(-3156.53 -3070.32)"/><path class="cls-1" d="M3190,3338.48c7.84,1.64,15.65,3.49,23.53,4.9,2.95,0.53,6.07.09,9.37,0.09,0-4.84.19-8.69,0-12.51-0.38-6.2-.76-6.46-6.91-6.81-9.6-.53-19.2-1.11-28.81-1.51a62.58,62.58,0,0,0-10.11.38c-2.88.35-6,1.33-6.21,4.83a6.69,6.69,0,0,0,4.17,6.92,57.61,57.61,0,0,0,8.14,2.47C3185.41,3337.79,3187.75,3338,3190,3338.48Z" transform="translate(-3156.53 -3070.32)"/><path class="cls-1" d="M3217.4,3208c0.58-7.7,1.29-15.12,1.53-22.57,0-1.1-2-2.83-3.4-3.26-1.61-.5-3.58,0-5.37.23-9,1.2-18,2.09-27.14.92-3.21-.41-7.13,1.33-10.09,3.13-5.31,3.24-4.75,8.53.94,11.26,6.31,3,12.69,6,19.17,8.61C3200.71,3209.42,3208.69,3208.93,3217.4,3208Z" transform="translate(-3156.53 -3070.32)"/><path class="cls-1" d="M3186.3,3411.92a161.47,161.47,0,0,0,22,4.09c5.3,0.62,10.73.12,17.75,0.12-0.78-7.84-1.1-14.26-2.25-20.53-0.28-1.54-3.23-3.62-5-3.69-13.76-.53-27.43.14-40.36,5.67-4.65,2-5.35,5.55-1.39,8.88C3179.79,3408.75,3183,3411.05,3186.3,3411.92Z" transform="translate(-3156.53 -3070.32)"/><path class="cls-1" d="M3223.91,3354.34c-2.36-.32-4.59-0.71-6.84-0.92-7.45-.68-14.89-1.6-22.36-1.84a44.57,44.57,0,0,0-13,1.46c-5.4,1.49-6.51,5.89-3,10.23,4,4.92,8.91,9.18,15.26,10.07,9.66,1.36,19.46,1.74,29.92,2.59v-21.6Z" transform="translate(-3156.53 -3070.32)"/><path class="cls-1" d="M3395.24,3135.24c0.44-5.31.63-10.47,1.36-15.54,1.23-8.5-.64-16.55-3.31-24.42a30.83,30.83,0,0,0-5.39-9.39c-3.85-4.7-7.81-4.26-11.22.86-9.74,14.62-10.47,30.9-9.39,48.49h27.95Z" transform="translate(-3156.53 -3070.32)"/><path class="cls-1" d="M3542.17,3634.74c-0.73,12.68-2.92,24.75,7.34,34.52,8.06-3.61,8.85-11.62,12.31-17.69,3.3-5.78-1.15-10.83-2.35-16.82h-17.3Z" transform="translate(-3156.53 -3070.32)"/><path class="cls-1" d="M3474.89,3141.09c2.33-12.06,4.36-23.48,2-35.09-1-5-2.29-10.21-4.79-14.53-1.74-3-5.52-6-8.85-6.66-4.33-.85-6.41,3.71-8.08,7.21a104.86,104.86,0,0,0-9.9,38.9,55.78,55.78,0,0,0,.55,7.37Z" transform="translate(-3156.53 -3070.32)"/><path class="cls-1" d="M3410.07,3137.51c7.93,0.24,15.88.08,24.45,0.08,0.78-6.58,2.07-13.22,2.22-19.88,0.19-8.29-.71-16.65-4.57-24.2-4.47-8.73-13.1-8.94-18.23-.59a28.05,28.05,0,0,0-2.12,5c-0.81,2.19-1.34,4.5-2.32,6.61-4.08,8.81-3.82,18.2-3.83,27.56C3405.68,3135.1,3407,3137.42,3410.07,3137.51Z" transform="translate(-3156.53 -3070.32)"/><path class="cls-1" d="M3286.9,3133a71.58,71.58,0,0,0,25.21.36c2-8.32.35-16-.14-23.67a41.49,41.49,0,0,0-10.44-25.27c-5.34-6.15-8.92-5.76-12.93,1.42a21.33,21.33,0,0,0-2,5.77,74.58,74.58,0,0,0-1.81,10.56c-0.61,8.49-1.13,17-1.17,25.52C3283.57,3129.51,3285.45,3132.72,3286.9,3133Z" transform="translate(-3156.53 -3070.32)"/><path class="cls-1" d="M3354.33,3095.15a22.33,22.33,0,0,0-12.59-16.58c-3.8,4.57-8.28,8.24-10.51,13-6.17,13.09-8,27.2-7.78,42.51h32.6C3357.77,3120.82,3356.71,3107.88,3354.33,3095.15Z" transform="translate(-3156.53 -3070.32)"/><path class="cls-1" d="M3207.33,3173.9c2.06-.25,4.11-0.62,6.18-0.77,3.75-.27,5.53-2.64,6.14-5.94a45.3,45.3,0,0,0,.37-7c0.19-6.95.53-13.89,0.46-20.84,0-4.33,2-5.76,6-6.47,11.12-2,22.22-1.4,33.35-.52,5,0.4,10.13,1.26,15.28-.51,0.47-7.84.8-15.33,1.38-22.81,0.65-8.34-.78-10.06-9.21-10.25-1.3,0-2.6.11-3.9,0.16-15,.51-30.09,1.07-45.14,1.5-5.91.16-11.82,0-19.13,0-0.41,9.37-1.1,17.37-1.05,25.37,0.09,13.74.63,27.47,1,41.21C3199.22,3173.37,3200.86,3174.69,3207.33,3173.9Z" transform="translate(-3156.53 -3070.32)"/><path class="cls-1" d="M3392.64,3628.86c0.64,12.61,1.41,24.68,5.18,36.36a21.59,21.59,0,0,0,1.12,2.9c1.6,3.24,4.06,4.37,7.67,3.48a16.64,16.64,0,0,0,12.53-11.54,73.7,73.7,0,0,0,2.81-8.87c1.43-7.21,4.23-14.43.62-22.33h-29.94Z" transform="translate(-3156.53 -3070.32)"/><path class="cls-1" d="M3434.9,3629.18c-1.49,16.2-3.45,31.45,12.41,42.07,10.73-5.05,16.86-26,11.68-41Z" transform="translate(-3156.53 -3070.32)"/><path class="cls-1" d="M3356.09,3626.56c-0.43,10.33-1.16,20.16-1.11,30,0,4.18.62,9,5.35,11.13,4,1.79,9.23-.4,12.81-4.9,0.16-.2.3-0.42,0.45-0.63,5.71-8,8.41-17.18,9.32-26.84,0.23-2.44-.7-5-1.13-7.7C3372.87,3627,3364.62,3624.32,3356.09,3626.56Z" transform="translate(-3156.53 -3070.32)"/><path class="cls-1" d="M3470.4,3631.08c-0.24,9.2-.5,17.92-0.66,26.65a8,8,0,0,0,.85,3c1.74,4.21,10.88,9.58,13.92,7.61,6.59-4.29,12.52-9.74,13.4-18,0.64-6.07-.35-12.31-0.66-19.52C3487.89,3630.39,3479.53,3629.25,3470.4,3631.08Z" transform="translate(-3156.53 -3070.32)"/><path class="cls-1" d="M3508.7,3655.23a25.35,25.35,0,0,0,4.31,8c4.2,5.12,7,4.77,11-.34,6.36-8,6.56-17.49,7-27.3-7.07-3.34-14.37-2.34-22.29-3.26C3507.32,3640.55,3506.31,3647.92,3508.7,3655.23Z" transform="translate(-3156.53 -3070.32)"/><path class="cls-1" d="M3229.35,3487.53c0.29-8.68.69-16.16,0.71-23.64,0-4-1.6-5.35-6.25-4.81-8.87,1-17.57,0-26.37-.79a41.48,41.48,0,0,0-13.81,1.29c-5,1.25-5.65,5-2,8.7a30.87,30.87,0,0,0,5,3.62c4.12,2.71,8.56,5,12.35,8.1C3207.76,3487.12,3217.82,3487.67,3229.35,3487.53Z" transform="translate(-3156.53 -3070.32)"/><path class="cls-1" d="M3221.83,3518.71c2.49-.14,5-0.71,8.28-1.2-0.36-6-.68-11.29-1-17.24-14.53-.39-28.16-3-41.79,0-3,.68-5.71,2.94-10.1,5.31,4.14,3.21,6.29,5.65,9,6.84A76.44,76.44,0,0,0,3221.83,3518.71Z" transform="translate(-3156.53 -3070.32)"/><path class="cls-1" d="M3191.17,3529c-2.53.72-5.66,2-5,5,0.49,2.08,3.16,3.73,5.05,5.35a5.74,5.74,0,0,0,3,.85c11.07,1.24,22.14,2.47,33.21,3.61,0.91,0.09,1.89-.52,3.36-1-0.22-4.5-.43-8.82-0.67-13.68-11.21-.6-21.29-1.26-31.37-1.6A25.62,25.62,0,0,0,3191.17,3529Z" transform="translate(-3156.53 -3070.32)"/><path class="cls-1" d="M3306.22,3623.5c-7.24-.09-14.48,0-22,0-2.4,10.25-1.28,19.31.41,28.23a31.46,31.46,0,0,0,4.79,11.32c2.4,3.59,7.06,3.55,9.16,0,6.17-10.57,11.09-21.71,12.62-34C3311.63,3625.34,3309.67,3623.54,3306.22,3623.5Z" transform="translate(-3156.53 -3070.32)"/><path class="cls-1" d="M3228.84,3446.41c-0.69-6.17-1.33-12-2-18.32a22.43,22.43,0,0,0-2.72-.72c-9.74-1.09-19.47-2.23-29.22-3.18a47.38,47.38,0,0,0-10.06-.15c-3.15.37-7.57,0-8.31,4.13-0.82,4.58,3.71,5.93,6.82,7.26,8.3,3.54,16.81,6.62,25.25,9.82C3215,3447.68,3221.53,3448,3228.84,3446.41Z" transform="translate(-3156.53 -3070.32)"/><path class="cls-1" d="M3265.81,3619.49c-7-.64-14-0.83-20.94-1.08-7.3-.27-11-3.84-11-11.09a77.37,77.37,0,0,1,.91-10.07,34.84,34.84,0,0,0-1.09-13.33l-33.3,2.38c-2.36,6.64.93,13.72,1.15,20.86,0.22,7.36-1.48,15,1.55,23.1h70.21C3274.24,3621.26,3273.62,3620.22,3265.81,3619.49Z" transform="translate(-3156.53 -3070.32)"/><path class="cls-1" d="M3232.93,3572.92V3556c-12.86.45-25,.82-37.21,1.33a19.39,19.39,0,0,0-5.3,1.17c-4.73,1.59-5.69,4.18-2.74,8.13,4.73,6.37,11,10.29,19.13,10.44A70.21,70.21,0,0,0,3232.93,3572.92Z" transform="translate(-3156.53 -3070.32)"/><path class="cls-2" d="M3655.29,3535.78c-1.3-1.48-2.76-2.83-4.11-4.2,8.27-10.14,8.18-11.58-1.34-24.06,1-1.09,1.91-2.28,3-3.37,7.79-8.12,7.66-13.11-.67-21.06-2-1.91-4.14-3.68-6.65-5.89,3.24-3.09,5.73-5.35,8.1-7.74,5.55-5.59,5.39-9.64-.65-14.87-2.08-1.8-4.39-3.34-7.18-5.45,6.36-4,12.48-7.45,12.69-15.3s-5.54-12.36-9.54-16.62c3.46-5.2,7.11-9.37,9.22-14.22,2.49-5.69.52-9-5.12-11.88-2.87-1.47-5.69-3.06-8.92-4.82,1.58-1.77,2.49-2.68,3.29-3.69,6.32-8,6.05-13-1.49-19.41-3.06-2.61-6.67-4.59-10.23-7,3.88-1.95,7.69-3.25,10.77-5.52,7.29-5.38,10.67-12.78,4.21-19.71-2.19-2.35-3.27-5.74-5-8.94,5.35-4.61,6.8-10.36,3.43-15.69-3-4.81-7.83-8.5-11.75-12.58a73.06,73.06,0,0,0,8-4.83c9.42-7.3,7.67-20.88-3.15-25.74-1.81-.81-3.51-1.86-5.9-3.14,2.22-2,4-3.44,5.53-5.07a38.88,38.88,0,0,0,5.55-6.46c4.15-6.93,2.34-12.94-4.81-16.86-3-1.67-6.18-3.2-10.05-5.19,2.58-1.13,4.21-1.9,5.87-2.57,6-2.41,10.26-6.36,10.29-13.24s-3.19-12.05-10.06-14.12c-6.16-1.85-12.43-3.31-19.09-5.06a8,8,0,0,1-.77-2.43c-0.29-8.58-.5-17.16-0.71-25.73-0.35-14.82-.59-29.64-1.07-44.45-0.22-6.72-2.31-8.67-9-8.94s-13.47,0-20.17-.5c-9.55-.65-19.06-1.8-28.61-2.58-8.91-.72-9.17-0.94-11.59-9.52-1.4-5-2.44-10.73-8.24-12.3-6.11-1.65-10.06,3-14.16,6.62-0.78.68-1.34,1.59-2.07,2.33-1.73,1.77-3.5,3.51-5.41,5.42a61,61,0,0,0-5.07-5.88c-3.45-3.07-6.81-6.4-10.75-8.71-6.05-3.54-9.08-2.52-13.21,3.13-1.34,1.82-2.7,3.63-4.34,5.84-2.92-4.11-5.08-8-8-11.15-9.6-10.23-20.43-8.66-27,3.65-1.68,3.17-3.32,6.35-4.94,9.46a4.14,4.14,0,0,1-1.29-.52c-1.48-2.71-2.93-5.43-4.39-8.16-2.63-4.93-10.41-10.42-14.37-9-7.07,2.46-14.28,5.11-18.68,11.94-0.87,1.35-1.85,2.62-3.08,4.34-1.75-3.29-2.9-5.89-4.44-8.23a42.68,42.68,0,0,0-5.76-7.34c-6.84-6.58-14.16-6.14-20,1.08-3.18,4-6.14,8.1-9.57,12.66-0.84-1.91-1.35-3.91-2.48-5.47-3.45-4.81-6.8-9.76-10.83-14.06-3.23-3.45-8-3.35-11.5-.64-6.52,5.07-13.22,10.23-15.86,18.72-0.59,1.89-1.45,3.68-2.61,6.56-1.38-2.49-2.48-3.89-3-5.48-2-6.16-6.38-10.53-10.54-15.24a13.53,13.53,0,0,0-22.62,3.49c-1.44,3.25-3.22,6.35-4.41,8.66-9.17.71-17.42,1.75-25.69,1.91-17.13.33-34.28,0.17-51.42,0.28-9.79.06-12.86,3.44-12.7,13.23,0.3,18.44.56,36.88,0.57,55.32,0,4.56-1.05,9.11-1.57,13.26-6.28,1.39-11.67,2.18-16.79,3.82-6.19,2-11.21,5.62-12.07,12.8-0.89,7.49,3.1,12.27,9.09,15.86,2,1.17,3.91,2.37,6.78,4.11-2.42.72-3.79,1.27-5.23,1.53-6.52,1.18-10.8,5.45-12.85,11.19s1.08,10.69,5,14.73c2.33,2.39,5.26,4.22,8,6.23,1.34,1,2.79,1.85,4.7,3.11-6.28,5-10.74,10.08-13.62,17.17-3.59,8.82,1.82,13.57,6.27,19.25-5,5-8.66,10.25-7.52,17.44,1.18,7.39,7.83,9.61,13.4,13-3.37,2.53-6.42,4.47-9.07,6.87-5.28,4.79-6.08,9.35-1.9,15.18,2.92,4.08,7,7.36,10.71,11.23-0.59.75-1.58,1.9-2.46,3.15-5.44,7.71-4.55,16.33,2.85,22.13,6.33,5,12.93,9.72,21.42,10.44a10.24,10.24,0,0,1,2.54,1.07c-8.73,2.58-16.69,4.89-24.62,7.29s-9.9,5.27-7.43,13.09c1.52,4.78,4.64,9.05,7.09,13.63a38.29,38.29,0,0,0-4,4.15c-5.13,7-3.11,15.85,4.64,19.59,4.2,2,8.71,3.41,13,5.19,1.45,0.6,2.77,1.53,5.76,3.21-4.29.37-6.59,0.35-8.79,0.81-6.28,1.31-11.16,4.8-13,11-1.63,5.54.79,10.2,5.35,13.61,3.74,2.8,7.62,5.41,11.38,8.17,2.52,1.85,5,3.83,9,6.94-10,1-17.11,3.11-23.32,8.55-6,5.26-7,7.17-1.55,13,3.28,3.56,7.21,6.52,10.92,9.82-2.71,5-8.78,9-5.69,15.3,2.36,4.83,6.36,8.85,9.54,13.1-12.85,4.49-11.35,16.78-5.07,24.15,1.68,2,3.82,3.54,5.52,5.5,1.12,1.29,2.45,2.87,2.63,4.45,1.18,10.32,2.25,20.66,3,31,0.4,5.69-.11,11.44.14,17.14,0.31,7.08.85,7.47,7.82,7.33,12.72-.26,25.45-1,38.15-0.72,12.12,0.32,24.21,1.78,36.68,2.77,0.49,3.4.83,5.92,1.22,8.45,1,6.7,2.31,13.32,6.59,18.91,3.66,4.79,8.73,6.83,13.61,5s9.27-4.63,11.37-9.93c1.33-3.36,2.9-6.62,4.87-11.08,2.87,7,5.09,13.11,7.85,19,2.91,6.2,6.17,7.51,12.63,5a25.5,25.5,0,0,0,7.49-5.12c2.24-2,4-4.58,6.34-7.36,1.22,2.18,2,3.73,2.93,5.24,5.59,9.49,10.79,11,20.58,5.9a15.59,15.59,0,0,0,4.54-3c4.19-4.72,8.16-9.64,12.12-14.38a16,16,0,0,0,.93,4.51,159.33,159.33,0,0,0,8,15c1.76,2.82,4.74,3.58,8.26,2.64,9.14-2.44,17.15-6.16,20.89-15.73a7.71,7.71,0,0,1,1.84-2c4.16,4.76,8.07,9.22,12,13.7,5.43,6.25,6.2,6.45,12.78,1.92a53.43,53.43,0,0,0,5.74-5.18c2-1.87,4-3.76,5.52-5.21,3.4,2.48,6.3,5.11,9.64,6.93,9.38,5.12,12.07,4.48,19.57-3.38,2.64-2.77,5.51-5.32,8.57-8.25,2.38,2.86,4.25,5.31,6.32,7.58,7,7.68,13.35,7.86,20.7.61,2.31-2.27,4.46-4.7,6.83-7.21,2.73,3.9,4.94,7.42,7.52,10.64,3.79,4.72,8,5.32,12.86,1.62a26.91,26.91,0,0,0,6.93-7.25c2.54-4.3,6-6.39,10.75-6.47,14-.26,28-0.55,42-0.58,6.47,0,13,1,19.41.72,7.34-.32,12.89-1.53,12.94-12.41,0.09-16.88,1.7-33.74,2-50.62,0.23-11.33,2.05-22.74-.75-34.29,1.71-1.44,3.47-3,5.27-4.43C3661.56,3554.09,3662.42,3543.89,3655.29,3535.78Zm-9.64-45.51c4.74,3.49,4,7.82-.88,11.34-5.41,3.94-11.81,3.55-17.89,4.25a119.8,119.8,0,0,1-16.26.36c-2.53-.05-5-0.83-8.74-1.48-0.21-4.69-.72-8.79-0.51-12.86,0.32-6.3.88-7.19,7.3-7.68,8-.61,16.09-1.06,24-0.12C3637.18,3484.61,3641.81,3487.45,3645.65,3490.27Zm1.78,30.14c0.42,1.6-1,4.5-2.53,5.66-4.77,3.63-10,6.12-16.44,5.88-5.11-.19-10.27,1.1-15.41,1.75-3,.38-6,0.8-9.9,1.31v-19.8a90,90,0,0,0,9.24,1.12c7.73,0.14,15.47,0,23.2,0,2.33,0,4.83-.63,6.93,0C3644.47,3517,3647,3518.71,3647.43,3520.41Zm0-56c-2.93,5-7.11,7.87-13.08,8.16-9.3.47-18.58,1.13-27.88,1.71-3.89.24-5.82-1.57-5.8-5.47,0-3.35,0-6.7,0-11.06,10.92-.84,20.67-2,30.43-2.22C3638.5,3455.32,3641.81,3457.66,3647.47,3464.37Zm-2.83-23.48c-1.81,1.37-3.89,2.86-6,3.24-12.47,2.24-25,3.85-37.57,3.27-3.53-8.57-3.69-9.93-2.53-22.16,10.24-1.36,20.51-4.35,31.18-2,5,1.08,10.28.45,14.75,4C3650.34,3432,3650.67,3436.33,3644.64,3440.89Zm4.87-40.89c-1.4,8.22-3.12,10.14-10.37,11.74a11.6,11.6,0,0,1-1.53.3c-12.14,1-24.28,1.93-36.42,2.82a29.11,29.11,0,0,1-4.64-.53l-1.8-16.22c9.66-.8,18.66-1.55,27.65-2.29,2.84-.23,5.85.1,8.51-0.7C3638.33,3392.89,3644,3396.06,3649.51,3400Zm-7.54-27.07c0.77,0.74.16,4.09-.9,5.33a24.09,24.09,0,0,1-15.4,8.34c-10,1.21-20.08,1.25-31.24,1.85-0.65-8.67-1.25-16.52-1.94-25.69,5.29-.25,9.15-0.84,13-0.54,8.77,0.7,17.65,1.19,26.19,3.09C3635.48,3366.17,3638.88,3369.94,3642,3372.93Zm2.29-33.38c0.56,2.72,0,5.44-2.8,6.54-4.29,1.66-8.67,3.41-13.18,4.13-8.91,1.42-17.92,2.34-26.91,3.07-2.94.24-6-.74-9.68-1.27v-16.49a9.47,9.47,0,0,1,2.43-1.17c12.8-1.42,25.59-3,38.42-4.06C3637.63,3329.88,3643.25,3334.68,3644.26,3339.55Zm-4.27-28.61c1.86,4.07,1.09,6.3-2.85,8.15a15.33,15.33,0,0,1-1.47.47c-9.5,3.36-33.36,5.27-45.05,3.44v-18.2c6.62-.47,13-0.93,19.31-1.36,4.89-.33,9.79-0.61,14.68-0.94C3631.18,3302,3637.49,3305.49,3640,3310.94Zm-3.39-39.86c4.28,1.42,6,4.46,5.63,8.89-0.33,3.94-2.79,6-6.41,6.79-4.3,1-8.6,2-13,2.6-10.47,1.44-21,2.65-32.76,4.12v-21.74a3.08,3.08,0,0,1,1.16-.93c11.6-.76,23.19-1.69,34.8-2C3629.57,3268.67,3633.19,3270,3636.6,3271.08Zm0-31.62c5,2.13,5.47,6.24,1.46,9.83-3,2.68-6.68,5.38-10.46,6.19a278.56,278.56,0,0,1-28.39,4.13c-3.25.35-6.63-.63-11.06-1.13v-22.14a48.67,48.67,0,0,1,5.62-.73c9.06-.06,18.15-0.44,27.17.15A48.62,48.62,0,0,1,3636.6,3239.46Zm-11.05-37.93c3.63,0.22,7.24,2.5,10.66,4.22,3.26,1.64,4,5.09,3,8a8.77,8.77,0,0,1-5.08,4.91c-10.15,2.93-20.35,5.85-30.73,7.7-5.1.91-10.61-.49-17-0.92,0-7.25,0-13.66,0-20.07,0-3.31,2-4.63,5-4.59C3602.8,3200.94,3614.2,3200.82,3625.55,3201.52Zm-75-84.58c1.89-.64,3.12-1.46,4.29-1.39,17,1.13,34,2.37,52.4,3.68,1.4,24.48,1.39,48.46,1.06,72.94h-20.76c-1.74-14.27,1.06-28.23,1.65-42.73-3.25-3-7.15-4.29-12.26-4-6.7.32-13.46-.68-20.19-1.16-3.49-.25-6.1-1.7-6.15-5.62C3550.52,3131.39,3550.59,3124.16,3550.59,3116.94Zm-14.19-22.46c1.07,2.45,2.53,4.76,3.1,7.28,3.06,13.59,1.44,27.35,1.67,41.54h-21.65C3520.74,3114.62,3525.64,3099.86,3536.4,3094.47Zm-40.58-2.47c11,4.32,15.11,12.28,15.4,21.85,0.28,9.25-1,18.54-1.69,28.35-8,1.63-15.29-.13-23.27.51C3487,3124.89,3485.9,3107.76,3495.83,3092Zm-50.55,38.91a104.86,104.86,0,0,1,9.9-38.9c1.67-3.5,3.75-8.05,8.08-7.21,3.33,0.66,7.11,3.64,8.85,6.66,2.5,4.33,3.78,9.54,4.79,14.53,2.35,11.6.32,23-2,35.09l-29.06-2.8A55.78,55.78,0,0,1,3445.28,3130.92Zm-35.77-26.39c1-2.11,1.51-4.42,2.32-6.61a28.05,28.05,0,0,1,2.12-5c5.13-8.35,13.76-8.14,18.23.59,3.86,7.55,4.76,15.91,4.57,24.2-0.15,6.67-1.44,13.31-2.22,19.88-8.57,0-16.52.16-24.45-.08-3-.09-4.4-2.42-4.39-5.42C3405.68,3122.73,3405.43,3113.35,3409.51,3104.53Zm-32.83-17.78c3.4-5.11,7.37-5.56,11.22-.86a30.83,30.83,0,0,1,5.39,9.39c2.66,7.87,4.53,15.92,3.31,24.42-0.73,5.08-.92,10.23-1.36,15.54h-27.95C3366.22,3117.65,3366.94,3101.37,3376.68,3086.75Zm-45.45,4.79c2.23-4.73,6.7-8.39,10.51-13a22.33,22.33,0,0,1,12.59,16.58c2.38,12.74,3.45,25.67,1.73,38.9h-32.6C3323.21,3118.74,3325.06,3104.62,3331.23,3091.54Zm-46.48,10.62a74.58,74.58,0,0,1,1.81-10.56,21.33,21.33,0,0,1,2-5.77c4-7.18,7.59-7.58,12.93-1.42a41.49,41.49,0,0,1,10.44,25.27c0.49,7.7,2.11,15.35.14,23.67a71.58,71.58,0,0,1-25.21-.36c-1.44-.27-3.33-3.48-3.32-5.31C3283.62,3119.16,3284.14,3110.65,3284.75,3102.15Zm-85.67-1.64c7.31,0,13.23.14,19.13,0,15-.43,30.1-1,45.14-1.5,1.3,0,2.6-.18,3.9-0.16,8.43,0.19,9.86,1.91,9.21,10.25-0.58,7.48-.92,15-1.38,22.81-5.15,1.77-10.23.91-15.28,0.51-11.13-.88-22.23-1.47-33.35.52-4,.71-6,2.14-6,6.47,0.07,6.94-.27,13.89-0.46,20.84a45.3,45.3,0,0,1-.37,7c-0.61,3.29-2.39,5.66-6.14,5.94-2.07.15-4.12,0.52-6.18,0.77-6.47.79-8.11-.53-8.29-6.82-0.39-13.73-.92-27.47-1-41.21C3198,3117.88,3198.67,3109.88,3199.08,3100.51Zm-25.2,97.16c-5.68-2.73-6.24-8-.94-11.26,3-1.81,6.88-3.54,10.09-3.13,9.18,1.17,18.12.28,27.14-.92,1.79-.24,3.76-0.74,5.37-0.23,1.39,0.44,3.43,2.16,3.4,3.26-0.24,7.45-1,14.87-1.53,22.57-8.71,1-16.69,1.47-24.35-1.67C3186.58,3203.63,3180.2,3200.7,3173.88,3197.67Zm-4.71,32.17c-3.16-3.68-2.9-6.1,1.15-8.94a11,11,0,0,1,4.88-2.11c13.66-1.34,27.27-1.28,41.79,2v23.6c-1.29.1-3,.62-4.62,0.3-9.63-1.92-19.25-3.91-28.82-6.13A26.53,26.53,0,0,1,3169.17,3229.84Zm1.72,35.34c1.87-6.68,4.92-10.61,11.19-11.08a130.45,130.45,0,0,1,17,0c4.63,0.26,9.24,1.08,13.84,1.79,3.39,0.52,6,2.29,6.06,6,0.17,6.92,0,13.84,0,21.38-13.48-1.29-26.37-1.67-38.71-5.93a12.92,12.92,0,0,1-3.39-1.87C3173.46,3272.92,3169.22,3271.15,3170.89,3265.18Zm-1.12,29.88c0.94-4,3.72-6,8.74-6.1a4.15,4.15,0,0,1,.78,0c6.89,1.25,13.75,2.78,20.69,3.69,6.61,0.86,13.31,1.08,20.55,1.62l2.06,20c-7.1-.58-13.38-0.2-19.15-1.75-9.74-2.62-19.18-6.33-28.66-9.84C3171.52,3301.47,3168.76,3299.4,3169.78,3295.06Zm1.07,32.78c0.24-3.5,3.33-4.48,6.21-4.83a62.58,62.58,0,0,1,10.11-.38c9.61,0.4,19.21,1,28.81,1.51,6.15,0.34,6.52.61,6.91,6.81,0.24,3.82,0,7.67,0,12.51-3.3,0-6.42.44-9.37-.09-7.88-1.41-15.69-3.26-23.53-4.9-2.28-.48-4.62-0.69-6.88-1.25a57.61,57.61,0,0,1-8.14-2.47A6.69,6.69,0,0,1,3170.84,3327.84Zm23.15,45.51c-6.35-.89-11.24-5.15-15.26-10.07-3.54-4.34-2.44-8.74,3-10.23a44.57,44.57,0,0,1,13-1.46c7.46,0.24,14.91,1.16,22.36,1.84,2.25,0.21,4.47.6,6.84,0.92v21.6C3213.45,3375.09,3203.65,3374.71,3194,3373.35Zm-15.54,24.23c12.93-5.53,26.6-6.2,40.36-5.67,1.79,0.07,4.74,2.15,5,3.69,1.15,6.27,1.47,12.69,2.25,20.53-7,0-12.45.5-17.75-.12a161.47,161.47,0,0,1-22-4.09c-3.34-.87-6.51-3.18-9.23-5.46C3173.1,3403.13,3173.8,3399.57,3178.46,3397.58Zm4.86,37.84c-3.11-1.33-7.63-2.68-6.82-7.26,0.74-4.13,5.15-3.76,8.31-4.13a47.38,47.38,0,0,1,10.06.15c9.75,1,19.49,2.09,29.22,3.18a22.43,22.43,0,0,1,2.72.72c0.7,6.32,1.35,12.16,2,18.32-7.31,1.55-13.85,1.27-20.27-1.16C3200.12,3442,3191.61,3439,3183.31,3435.43Zm3.39,36.48a30.87,30.87,0,0,1-5-3.62c-3.69-3.69-3-7.45,2-8.7a41.48,41.48,0,0,1,13.81-1.29c8.8,0.84,17.5,1.83,26.37.79,4.65-.54,6.26.83,6.25,4.81,0,7.48-.43,15-0.71,23.64-11.53.13-21.59-.41-30.3-7.54C3195.26,3476.9,3190.82,3474.61,3186.7,3471.9Zm-9.51,33.7c4.4-2.37,7.07-4.63,10.1-5.31,13.63-3,27.26-.4,41.79,0,0.36,5.95.67,11.24,1,17.24-3.31.49-5.78,1.06-8.28,1.2a76.44,76.44,0,0,1-35.66-6.27C3183.47,3511.25,3181.32,3508.81,3177.18,3505.6Zm52.95,23.51c0.24,4.86.45,9.17,0.67,13.68-1.48.45-2.46,1.06-3.36,1-11.08-1.14-22.15-2.37-33.21-3.61a5.74,5.74,0,0,1-3-.85c-1.89-1.62-4.56-3.27-5.05-5.35-0.7-3,2.42-4.26,5-5a25.62,25.62,0,0,1,7.59-1.45C3208.84,3527.85,3218.92,3528.52,3230.13,3529.12Zm-42.45,37.57c-2.94-4-2-6.54,2.74-8.13a19.39,19.39,0,0,1,5.3-1.17c12.17-.51,24.35-0.88,37.21-1.33v16.88a70.21,70.21,0,0,1-26.12,4.21C3198.68,3577,3192.41,3573.05,3187.68,3566.69Zm85.61,63.58h-70.21c-3-8.13-1.32-15.74-1.55-23.1-0.22-7.14-3.51-14.21-1.15-20.86l33.3-2.38a34.84,34.84,0,0,1,1.09,13.33,77.37,77.37,0,0,0-.91,10.07c0,7.25,3.72,10.82,11,11.09,7,0.25,14,.44,20.94,1.08C3273.62,3620.22,3274.24,3621.26,3273.29,3630.26Zm37.89-1.32c-1.53,12.32-6.45,23.46-12.62,34-2.1,3.59-6.76,3.63-9.16,0a31.46,31.46,0,0,1-4.79-11.32c-1.69-8.92-2.81-18-.41-28.23,7.54,0,14.78-.06,22,0C3309.67,3623.54,3311.63,3625.34,3311.18,3628.94Zm18.49,40.26c-4.19-4.07-6.35-9.51-7.3-15a146.5,146.5,0,0,1-1.91-23.95c0-6.74,1.41-7.55,8-7.09,5.37,0.38,10.75.72,15.91,1.07C3349.06,3641.45,3341.29,3665,3329.67,3669.2Zm43.92-7.06c-0.15.21-.29,0.43-0.45,0.63-3.58,4.49-8.79,6.69-12.81,4.9-4.73-2.11-5.33-6.94-5.35-11.12,0-9.83.68-19.66,1.11-30,8.53-2.24,16.78.39,25.69,1,0.43,2.71,1.36,5.26,1.13,7.7C3382,3645,3379.3,3654.1,3373.59,3662.14Zm48.38-11a73.7,73.7,0,0,1-2.81,8.87,16.64,16.64,0,0,1-12.53,11.54c-3.62.89-6.08-.24-7.67-3.48a21.59,21.59,0,0,1-1.12-2.9c-3.78-11.68-4.55-23.75-5.18-36.36h29.94C3426.19,3636.75,3423.4,3644,3422,3651.19Zm25.35,20.06c-15.87-10.61-13.9-25.87-12.41-42.07l24.1,1.11C3464.17,3645.28,3458,3666.2,3447.31,3671.25Zm50.6-21c-0.89,8.28-6.81,13.73-13.4,18-3,2-12.18-3.4-13.92-7.61a8,8,0,0,1-.85-3c0.16-8.73.42-17.46,0.66-26.65,9.13-1.83,17.49-.69,26.84-0.31C3497.56,3638,3498.55,3644.23,3497.91,3650.3Zm26.15,12.6c-4,5.11-6.85,5.46-11,.34a25.35,25.35,0,0,1-4.31-8c-2.39-7.3-1.38-14.68.11-22.89,7.91,0.92,15.21-.08,22.29,3.26C3530.62,3645.41,3530.42,3654.86,3524.06,3662.9Zm37.77-11.34c-3.46,6.08-4.25,14.09-12.31,17.69-10.26-9.77-8.07-21.84-7.34-34.52h17.3C3560.67,3640.73,3565.12,3645.78,3561.82,3651.56Zm-160.57-31.35q-39.16-1.89-78.3-4c-23.5-1.29-48.08-5.25-71.34-4.88-7.39.12-8.07-.3-8.36-7.73-4.12-105-12-209.89-14.89-315q-2-71.89,1-143.79c0.16-3.89,2.07-5.7,5.81-5.81,4.68-.13,9.37-0.38,14-0.25,57.6,1.68,115.57,4.5,173.32,7.4l82.74,4.16c24.41,1.22,50.41.13,74.39,4.71,0,5.25.42,10.16-.06,15-2.41,23.81-2.35,48.85-1.13,72.67q5.44,106.37,10.88,212.74,2.72,53.19,5.44,106.37c0.88,17.1,3.93,35.59,2.62,52.65-0.37,4.86-1.06,7.34-3.1,8.8-1.48,1.05-3.66,1.57-7,2.06-7.25,1.08-14.79,1.27-22.1,1.72C3510.81,3627,3455.71,3622.83,3401.25,3620.21Zm234.93,33.5c-10.51.11-21.26,0.37-32,.29-10.59-.08-21.18-0.5-31.5-0.76-2.13-6.54-2-10.59.43-19.77,5.77,0,11.86,0,18-.17,5.23-.12,10.89,2,15.74-2.81-3.21-6.68-2.18-13.58-1.56-20.59,0.71-8,.61-16,0.85-24,0-1.54,0-3.07,0-5,9.89-6.6,21.24-2.83,31.48-5.14C3640.85,3583.65,3639.87,3635.34,3636.19,3653.7Zm11.85-97.94c-5.67,6.09-13.44,7.66-20.73,9.69-6.6,1.84-13.71,1.81-21.31,2.69-2.11-8.32-4.07-15.22-.71-23.6,11.64-1.45,23.9-3.1,36.2-4.44,4.06-.44,6.86,1.82,8.28,5.7C3651.1,3549.47,3651,3552.57,3648,3555.76Z" transform="translate(-3156.53 -3070.32)"/><path class="cls-2" d="M3559.86,3192.64c1,6.89,1.25,13.9,1.85,20.86,0.27,3.17,1.43,5.59,5.19,5.37a5.76,5.76,0,0,0,5.51-6.31c-1.28-10.52-2.61-21-4.27-31.49-1.24-7.79-3.65-9.32-11.27-6.66a56.25,56.25,0,0,1-19,3,38.39,38.39,0,0,0-9.23,1.15c-3.51.87-5.6,4.18-4.74,6.89,1,3.31,3.71,3,6.39,2.76,7.22-.55,14.44-1,21.66-1.49C3557.65,3186.43,3559,3187.09,3559.86,3192.64Z" transform="translate(-3156.53 -3070.32)"/><path class="cls-2" d="M3284,3172c5.1,1,8.17-.21,8.83-3.55,0.58-2.9-1.55-4.68-6.83-5.58-10.76-1.83-21.56-1.94-32.44-1.4-7,.35-7.93,1-8,8-0.05,9.57-.7,19.14-0.41,28.69,0.13,4.35-.62,9.25,2.61,13.13,7.71-3.84,7.35-3.84,7.33-11,0-9.5.58-19,1-29.89C3266.16,3170.44,3275.13,3170.23,3284,3172Z" transform="translate(-3156.53 -3070.32)"/><path class="cls-2" d="M3272.35,3588.67c-5.85.64-6.87-.08-7-6.16s0.09-12,.12-18c0-3.12,0-6.24-.06-9.36-0.06-2.31-1-4.14-3.61-4.14a4.71,4.71,0,0,0-5.08,3.91,10.91,10.91,0,0,0-.07,2.33c0,11.44-.15,22.88-0.06,34.32,0,5.92,1,6.62,6.92,6.34,7.52-.36,15.07-1.29,22.54-0.87,6.4,0.37,10.44-1.62,13.46-9-2.54-.58-4.42-1.48-6.23-1.36C3286.3,3587.17,3279.32,3587.91,3272.35,3588.67Z" transform="translate(-3156.53 -3070.32)"/><path class="cls-2" d="M3574.2,3567.08a47.48,47.48,0,0,0-1.9,11.45c-0.29,6.16-.07,12.34-0.07,19.4-7.79,0-14.47,3.52-22,1.81a12.54,12.54,0,0,0-6.8.76,4,4,0,0,0-1.1,7,8.84,8.84,0,0,0,5.58,2c8.54-.69,17.08-1.57,25.54-2.84,5.85-.87,7.26-3,7.36-9,0.06-4.16,0-8.32.07-12.48,0.16-5.71.72-11.42,0.57-17.11,0-1.57-2-3.09-3-4.63C3577,3564.64,3574.65,3565.58,3574.2,3567.08Z" transform="translate(-3156.53 -3070.32)"/></svg>
