<svg id="Layer_1" data-name="Layer 1" xmlns="http://www.w3.org/2000/svg" viewBox="0 0 508.62 690.75" width="508.62" height="690.75"><title>Inside_frame_5</title><path d="M439.7,641.8c-10.69,2.12-22.52-2.85-33.47-3.1q-23.38-.54-46.77-0.59c-31.14-.08-62.28.42-93.41,1.21-61,1.55-121.93,4.23-182.91,5.93-11.91.34-9.56-8.93-9.73-18.37C73.14,611.93,72.7,597,72.34,582c-0.7-29.25-2.1-58.57-2.1-87.82C67.31,371.5,63.12,248.69,61.38,126c0-1.52.15-3,.29-5.85,3.91-.48,7.36-1.19,10.83-1.28l5.06-.12c48.46-.9,96.88-3,145.32-4.6,62.11-2,124.35-3,186.42.77,6.78,0.42,18.08-.94,24.28,1.71,5,2.15,5,7,5.7,13,1.7,14-.48,28.91-1.09,43q-2,46.46-3.2,92.94-2.4,93.41-1.53,186.86c0.56,60,3.39,119.29,7.25,178.92a34.92,34.92,0,0,1-1.06,10.5Z" fill="#333"/></svg>
