<svg id="Layer_1" data-name="Layer 1" xmlns="http://www.w3.org/2000/svg" viewBox="0 0 186.15 125.83"><defs><style>.cls-1{fill:#fff;}</style></defs><title>Camera</title><path class="cls-1" d="M2969.09,1488.7a25.37,25.37,0,1,0,25.36,25.37A25.39,25.39,0,0,0,2969.09,1488.7Z" transform="translate(-2919.8 -1440.77)"/><circle class="cls-1" cx="17.64" cy="36.78" r="3.55"/><path class="cls-1" d="M3103.36,1536.11v-78.59a4.44,4.44,0,0,0-4.44-4.44h-28v-1.73a4.44,4.44,0,0,0-4.43-4.44h-74.8a4.44,4.44,0,0,0-4.44,4.44v1.73h-13v-7.89a4.44,4.44,0,0,0-4.43-4.44H2943.7a4.44,4.44,0,0,0-4.44,4.44v7.89h-15a4.43,4.43,0,0,0-4.44,4.44v104.64a4.44,4.44,0,0,0,4.44,4.44h174.69a4.44,4.44,0,0,0,4.44-4.44v-2.7c1.43,0,2.59-.51,2.59-1.15v-21C3106,1536.63,3104.79,1536.11,3103.36,1536.11Zm-174.74-58.57a8.82,8.82,0,1,1,8.82,8.82A8.83,8.83,0,0,1,2928.62,1477.54Zm72.27,49.95a34.61,34.61,0,1,1,2.71-13.43A34.39,34.39,0,0,1,3000.89,1527.49Z" transform="translate(-2919.8 -1440.77)"/></svg>