<svg id="Layer_1" data-name="Layer 1" xmlns="http://www.w3.org/2000/svg" viewBox="0 0 423.46 543.1"><defs><style>.cls-1{fill:#fff;}</style></defs><title>Frame_Edges</title><path class="cls-1" d="M3200.8,1353.76c1.1,7.39,1.34,14.9,2,22.36,0.29,3.4,1.54,6,5.56,5.75a6.18,6.18,0,0,0,5.91-6.77c-1.37-11.27-2.79-22.55-4.58-33.76-1.33-8.35-3.91-10-12.08-7.14a60.29,60.29,0,0,1-20.41,3.25,41.17,41.17,0,0,0-9.89,1.24c-3.76.93-6,4.48-5.08,7.38,1.12,3.55,4,3.18,6.85,3,7.74-.59,15.48-1.07,23.22-1.6C3198.43,1347.1,3199.92,1347.81,3200.8,1353.76Z" transform="translate(-2800.53 -1320)"/><path class="cls-1" d="M2842.23,1331.59c5.47,1.06,8.76-.23,9.47-3.81,0.62-3.11-1.66-5-7.33-6-11.53-2-23.11-2.08-34.78-1.5-7.53.38-8.51,1-8.54,8.6-0.06,10.25-.75,20.52-0.44,30.76,0.14,4.66-.67,9.91,2.8,14.07,8.27-4.12,7.88-4.12,7.86-11.78,0-10.19.62-20.39,1-32C2823.06,1330,2832.68,1329.74,2842.23,1331.59Z" transform="translate(-2800.53 -1320)"/><path class="cls-1" d="M2829.7,1853.1c-6.27.68-7.36-.08-7.49-6.6s0.09-12.83.13-19.24c0-3.35,0-6.69-.06-10-0.07-2.48-1-4.44-3.87-4.44s-4.8,1.32-5.45,4.19a11.72,11.72,0,0,0-.07,2.5c0,12.26-.16,24.53-0.06,36.79,0,6.35,1.07,7.1,7.42,6.8,8.06-.38,16.16-1.39,24.17-0.93,6.86,0.39,11.2-1.73,14.43-9.69-2.72-.62-4.74-1.58-6.68-1.45C2844.65,1851.49,2837.17,1852.28,2829.7,1853.1Z" transform="translate(-2800.53 -1320)"/><path class="cls-1" d="M3216.17,1815.47a50.93,50.93,0,0,0-2,12.27c-0.31,6.6-.08,13.23-0.08,20.8-8.36,0-15.52,3.78-23.55,1.94a13.44,13.44,0,0,0-7.29.82,4.29,4.29,0,0,0-1.18,7.46,9.48,9.48,0,0,0,6,2.16c9.15-.74,18.31-1.69,27.38-3,6.27-.94,7.79-3.18,7.88-9.6,0.07-4.46-.05-8.92.08-13.38,0.18-6.12.77-12.24,0.61-18.34,0-1.68-2.12-3.31-3.26-5C3219.14,1812.85,3216.66,1813.86,3216.17,1815.47Z" transform="translate(-2800.53 -1320)"/></svg>