<svg id="Layer_1" data-name="Layer 1" xmlns="http://www.w3.org/2000/svg" viewBox="0 0 375.03 375.9"><defs><style>.selected-indicator{fill:#d4145a;}</style></defs><title>Selected</title><path class="selected-indicator" d="M6348.53,318.48c1,6.7,1.21,13.5,1.79,20.26,0.26,3.08,1.4,5.43,5,5.22a5.6,5.6,0,0,0,5.36-6.13c-1.24-10.22-2.53-20.44-4.15-30.6-1.21-7.57-3.55-9.06-10.95-6.47a54.64,54.64,0,0,1-18.5,2.95,37.33,37.33,0,0,0-9,1.12c-3.41.84-5.44,4.06-4.61,6.69,1,3.22,3.6,2.88,6.21,2.68,7-.53,14-1,21.05-1.45C6346.38,312.44,6347.73,313.08,6348.53,318.48Z" transform="translate(-5985.73 -299.57)"/><path class="selected-indicator" d="M6023.53,313.38c5,1,7.94-.21,8.58-3.45,0.56-2.82-1.51-4.55-6.64-5.42-10.45-1.78-20.95-1.88-31.52-1.36-6.82.34-7.71,1-7.74,7.79-0.05,9.29-.68,18.6-0.4,27.88,0.13,4.23-.61,9,2.54,12.75,7.49-3.73,7.14-3.73,7.13-10.68,0-9.24.56-18.48,0.93-29C6006.14,311.9,6014.86,311.7,6023.53,313.38Z" transform="translate(-5985.73 -299.57)"/><path class="selected-indicator" d="M6007.16,666.4c-5.69.62-6.67-.07-6.79-6s0.08-11.63.12-17.44c0-3,0-6.06-.05-9.1-0.06-2.25-.94-4-3.51-4a4.58,4.58,0,0,0-4.94,3.8,10.62,10.62,0,0,0-.06,2.27c0,11.12-.15,22.23-0.06,33.34,0,5.75,1,6.44,6.72,6.16,7.31-.35,14.64-1.26,21.91-0.85,6.22,0.36,10.15-1.57,13.08-8.78-2.46-.57-4.29-1.44-6.06-1.32C6020.71,664.95,6013.93,665.67,6007.16,666.4Z" transform="translate(-5985.73 -299.57)"/><path class="selected-indicator" d="M6349.75,633.83A46.11,46.11,0,0,0,6347.9,645c-0.28,6-.07,12-0.07,18.85-7.57,0-14.06,3.42-21.34,1.76a12.18,12.18,0,0,0-6.61.74,3.89,3.89,0,0,0-1.07,6.76,8.59,8.59,0,0,0,5.42,2c8.3-.67,16.59-1.53,24.82-2.76,5.69-.85,7.06-2.89,7.15-8.71,0.06-4,0-8.09.07-12.13,0.16-5.55.7-11.09,0.55-16.63,0-1.52-1.92-3-3-4.5C6352.44,631.46,6350.19,632.37,6349.75,633.83Z" transform="translate(-5985.73 -299.57)"/></svg>
