<svg id="Layer_1" xmlns="http://www.w3.org/2000/svg" viewBox="0 0 100 100"><defs><style>.boo-1{fill:#d4145a;opacity:0.9;}.cls-2{fill:#fff;fill-rule:evenodd;}</style></defs><title>Boo_Button</title><rect class="boo-1" width="100" height="100"/><path class="cls-2" d="M2763.9893,969.9385c5.1259-.2442,10.5771-0.0508,15.88-0.0508h11.8829a25.8477,25.8477,0,0,1,3.8437.1016,4.8492,4.8492,0,0,1,3.7432,2.832c0.3828,0.99-1.8711,2.3857-2.2432,3.2373a3.1405,3.1405,0,0,0-.5566,1.9717c0.1982,0.9306,1.28,1.2646,2.0234,1.7187,0.9326,0.57,3.64,1.2891,4.0127,2.377,0.6338,1.8515-2.8574,3.2959-4.124,4.0459-0.7178.4258-1.3623,0.747-1.2637,1.872A1.9811,1.9811,0,0,0,2798.4,989.56c1.3281,0.9668,5.1387,3.0986,3.82,5.21a4.5459,4.5459,0,0,1-1.9717,1.668c-0.4931.248-2.4033,0.4824-2.5927,1.0117a6.6181,6.6181,0,0,0,.1523,2.63,7.04,7.04,0,0,1,.1006,3.0342,3.4346,3.4346,0,0,1-1.9717,1.82,3.1491,3.1491,0,0,1-1.8584.4043c-6.2275.0332-12.2187,0.1016-18.6611,0.1016-1.9,0-3.9912-.2676-4.3477,1.2128-0.22.9063,0.5049,2.0567,0.8076,2.7305,1.8936,4.2178,3.6631,8.11,5.4629,12.5928a23.3278,23.3278,0,0,1,1.0108,2.5791,4.966,4.966,0,0,1-.3037,3.084c-0.5049,1.122-1.8008,2.5244-3.4395,1.9228-1.1709-.4306-1.9746-1.9336-2.78-3.0342-5.3427-7.3037-10.62-14.5293-15.9306-21.8466a14.6923,14.6923,0,0,1-2.9834-5.7139,28.0953,28.0953,0,0,1-.3018-5.5137c0-3.7451-.0732-7.9424,0-11.58a11.704,11.704,0,0,1,3.1846-8.4453,11.09,11.09,0,0,1,3.3877-2.4267A11.6793,11.6793,0,0,1,2763.9893,969.9385Z" transform="translate(-2727.667 -949.2832)"/></svg>
